<?xml version="1.0" standalone="no"?>
<!DOCTYPE svg PUBLIC "-//W3C//DTD SVG 20010904//EN"
 "http://www.w3.org/TR/2001/REC-SVG-20010904/DTD/svg10.dtd">
<svg version="1.0" xmlns="http://www.w3.org/2000/svg"
 width="640.000000pt" height="640.000000pt" viewBox="0 0 640.000000 640.000000"
 preserveAspectRatio="xMidYMid meet">
<metadata>
Created by potrace 1.14, written by Peter Selinger 2001-2017
</metadata>
<g transform="translate(0.000000,640.000000) scale(0.100000,-0.100000)"
fill="#000000" stroke="none">
<path d="M3680 5854 c-47 -25 -170 -89 -275 -143 -345 -178 -528 -272 -690
-356 -88 -46 -221 -114 -295 -151 -74 -38 -137 -71 -140 -74 -3 -3 -61 -33
-130 -68 -159 -80 -567 -290 -685 -352 -49 -26 -164 -85 -255 -131 -91 -46
-167 -86 -170 -89 -3 -3 -40 -22 -82 -43 -43 -21 -79 -44 -80 -50 -4 -35 -3
-43 5 -54 5 -7 6 -17 2 -23 -3 -5 -2 -10 4 -10 5 0 13 -10 17 -22 3 -13 15
-35 25 -50 24 -33 24 -37 0 -31 -22 5 -37 -23 -21 -42 5 -6 7 -15 3 -18 -9
-10 -25 -9 -19 1 2 4 1 14 -4 22 -5 8 -4 22 2 34 8 15 6 22 -13 37 -13 10 -21
21 -17 24 4 4 19 -5 33 -19 33 -33 41 -33 18 -1 -10 13 -24 25 -30 25 -7 0
-13 5 -13 11 0 6 7 9 15 5 22 -8 18 2 -6 15 -12 6 -19 7 -15 1 3 -5 -3 -21
-14 -33 -21 -26 -26 -19 -10 12 6 10 8 19 6 19 -3 0 -10 -9 -16 -21 -9 -15 -8
-24 1 -35 15 -18 0 -18 -25 1 -11 8 -14 15 -8 15 7 0 12 5 12 10 0 6 -15 0
-34 -12 -22 -14 -30 -25 -23 -30 6 -4 15 -4 19 -2 19 12 6 -15 -15 -31 -21
-16 -21 -16 5 -1 31 18 48 20 48 6 0 -6 -6 -9 -12 -8 -7 2 -13 -5 -13 -14 0
-9 -4 -20 -8 -24 -9 -10 -9 -25 1 -21 4 1 9 -3 10 -8 2 -6 9 -19 15 -30 6 -11
10 -24 9 -28 -1 -5 3 -5 9 -1 9 5 10 2 5 -11 -7 -18 -6 -18 13 -1 19 18 20 17
18 -3 -1 -12 -7 -21 -14 -21 -7 0 -13 -5 -13 -11 0 -5 4 -8 9 -5 5 3 14 0 20
-8 9 -11 9 -15 -1 -20 -7 -3 -4 -4 6 -3 10 1 21 -4 24 -12 3 -8 0 -11 -7 -7
-6 4 -11 3 -11 -2 0 -15 19 -19 98 -17 45 0 71 -3 69 -10 -2 -5 -37 -9 -80 -9
-93 0 -92 -10 1 -13 83 -2 82 -1 82 -11 0 -4 -31 -7 -69 -7 -64 1 -69 -1 -60
-17 6 -10 15 -15 21 -12 7 5 9 1 5 -9 -9 -23 2 -47 17 -41 7 3 19 -3 27 -12
13 -15 11 -16 -11 -10 -18 5 -21 4 -11 -2 8 -6 29 -9 48 -7 18 1 33 0 33 -2 0
-2 -11 -16 -25 -31 -14 -15 -25 -22 -25 -16 0 5 5 15 12 22 8 8 8 12 1 12 -20
0 -24 -33 -6 -59 10 -14 16 -30 15 -36 -2 -5 7 3 20 18 22 26 24 27 46 11 14
-9 21 -22 18 -31 -3 -8 -1 -11 4 -8 6 3 10 1 10 -4 0 -6 -9 -11 -21 -11 -15 0
-19 4 -14 19 9 30 -15 37 -36 10 -15 -21 -16 -26 -3 -40 19 -21 18 -36 -5 -48
-32 -18 -35 -59 -7 -102 15 -21 26 -43 26 -48 0 -5 9 -11 20 -14 27 -7 26 -42
0 -44 -11 -1 -18 3 -14 8 3 6 -2 19 -11 29 -9 10 -14 23 -10 29 3 7 0 8 -9 5
-9 -3 -14 -10 -11 -14 10 -16 -37 -40 -55 -30 -13 7 -22 5 -30 -5 -9 -11 -9
-15 -1 -15 6 0 11 6 11 13 0 8 4 7 10 -3 15 -23 12 -27 -14 -25 -20 3 -24 -1
-21 -17 3 -12 7 -23 11 -27 3 -3 4 3 2 13 -1 10 2 21 8 23 7 2 11 -9 10 -29
-1 -32 0 -33 42 -33 43 0 73 -21 72 -49 0 -6 -7 -2 -16 9 -9 13 -27 20 -50 21
l-34 1 22 -26 c13 -14 25 -30 29 -34 3 -4 5 6 4 23 -1 16 2 30 7 30 9 0 9 0
12 -52 1 -20 5 -41 10 -45 5 -4 5 3 1 17 -7 22 -6 24 9 11 9 -8 15 -20 12 -28
-6 -15 47 -76 57 -66 4 3 7 1 7 -4 0 -6 -6 -14 -12 -17 -7 -3 -3 -3 9 0 17 4
21 2 18 -8 -3 -8 1 -22 9 -33 15 -20 15 -20 16 0 1 45 5 65 11 65 13 0 17 -24
7 -43 -5 -9 -6 -22 -2 -28 4 -6 0 -16 -7 -21 -12 -8 -11 -9 1 -5 9 2 14 14 12
27 -2 19 0 21 13 10 14 -12 14 -16 -1 -39 -9 -14 -11 -20 -3 -13 16 15 33 16
24 2 -4 -6 1 -22 10 -36 9 -13 14 -28 11 -33 -3 -4 1 -8 9 -8 18 0 18 7 0 31
-9 11 -11 25 -6 35 4 9 6 41 4 71 -1 30 -3 66 -3 79 0 16 -5 21 -14 18 -20 -8
-56 21 -49 39 6 16 18 10 18 -9 0 -7 13 -12 29 -12 31 -1 71 -39 59 -58 -4 -7
0 -8 12 -3 13 5 15 3 9 -6 -5 -7 -9 -37 -9 -65 0 -44 -2 -52 -16 -48 -21 7
-34 -22 -19 -41 6 -7 19 -13 28 -13 9 0 26 -1 36 -3 10 -2 20 3 22 10 1 7 0 8
-3 2 -2 -5 -9 -10 -14 -10 -6 0 -8 4 -4 9 3 5 -9 9 -26 8 -18 -1 -34 3 -36 8
-2 7 17 11 47 11 34 0 50 -4 50 -13 0 -7 7 -10 18 -6 9 3 2 -6 -17 -20 -27
-21 -38 -24 -54 -16 -15 8 -23 7 -34 -4 -9 -8 -12 -20 -9 -26 9 -14 26 -14 26
0 0 5 -5 7 -11 3 -7 -4 -10 -1 -7 6 2 8 9 15 15 17 13 5 24 -35 12 -42 -5 -3
3 -24 18 -45 31 -48 43 -53 14 -7 -11 19 -18 37 -14 40 12 12 21 7 19 -10 0
-11 5 -17 13 -15 8 2 11 -3 8 -12 -4 -9 -2 -18 3 -21 5 -3 7 -12 4 -19 -3 -8
0 -17 6 -21 6 -4 11 -1 9 6 -3 25 1 42 8 35 12 -12 12 -40 1 -54 -9 -10 -8
-12 3 -10 8 2 13 -3 12 -9 -4 -16 9 -17 25 -1 9 9 12 9 12 1 0 -7 -4 -15 -10
-18 -13 -8 18 -55 37 -55 10 0 13 -6 9 -16 -3 -9 -2 -12 5 -9 6 4 8 14 5 22
-5 11 -2 14 11 9 10 -3 6 3 -9 14 -16 13 -25 27 -21 35 3 8 3 15 0 15 -14 0
-14 -31 -1 -45 10 -10 11 -15 3 -15 -19 0 -39 33 -28 46 11 13 2 44 -13 44 -5
0 -6 -5 -2 -11 4 -7 1 -10 -6 -7 -15 5 -22 95 -8 104 8 5 12 -8 9 -36 -1 -8 5
-4 13 10 l14 25 0 -25 c0 -14 2 -34 5 -45 3 -11 6 -23 6 -27 1 -5 6 -8 12 -8
8 0 7 5 -1 15 -11 13 -10 14 3 9 11 -4 15 -15 12 -36 -3 -22 0 -28 10 -24 9 3
12 0 9 -8 -3 -8 -1 -17 5 -21 6 -3 11 -13 11 -21 0 -8 -4 -13 -9 -10 -5 3 -11
0 -14 -8 -4 -9 2 -12 18 -10 13 1 31 -6 41 -17 9 -10 13 -19 8 -19 -5 0 -2 -5
6 -10 11 -7 10 -9 -8 -7 -15 1 -22 6 -19 17 3 11 -5 15 -27 17 -28 1 -29 1 -8
-8 13 -5 20 -13 17 -19 -3 -5 -1 -10 5 -10 6 0 15 -10 20 -22 7 -18 9 -19 9
-5 1 18 31 25 31 6 0 -5 -4 -8 -9 -4 -19 11 -1 -40 19 -57 11 -9 20 -21 20
-27 0 -6 5 -11 10 -11 6 0 10 -5 10 -11 0 -6 9 -23 20 -39 11 -15 16 -30 13
-34 -4 -4 0 -4 8 -1 13 5 16 0 14 -19 -2 -14 2 -29 7 -33 7 -4 8 -1 3 7 -6 10
-4 12 9 7 10 -4 20 -7 22 -7 2 0 4 -5 4 -11 0 -5 -4 -8 -9 -5 -5 3 -12 -1 -15
-9 -4 -13 -2 -14 14 -5 14 7 20 7 20 0 0 -5 -4 -10 -10 -10 -5 0 -10 -6 -10
-12 0 -7 11 -1 24 12 13 14 22 28 19 32 -2 4 5 12 16 18 16 8 22 6 31 -10 7
-13 7 -20 0 -20 -5 0 -10 7 -10 15 0 9 -6 12 -15 8 -14 -5 -14 -8 -2 -22 21
-25 32 -45 19 -37 -5 3 -12 1 -14 -6 -3 -7 -7 -5 -11 6 -4 10 -3 15 3 11 6 -3
10 -2 10 4 0 22 -18 18 -42 -9 -20 -23 -22 -30 -11 -34 8 -3 11 -10 8 -16 -3
-6 1 -7 9 -4 11 4 19 -2 25 -17 7 -17 10 -19 10 -7 1 10 -10 25 -24 34 -23 15
-26 34 -4 34 6 0 7 -4 4 -10 -3 -5 0 -10 8 -10 16 0 31 -27 28 -47 -1 -7 3
-13 9 -13 6 0 8 6 4 13 -4 6 4 2 18 -11 23 -21 38 -21 38 0 0 5 -4 6 -10 3 -6
-4 -7 1 -3 11 4 11 8 13 11 6 2 -7 9 -9 15 -5 7 4 4 -4 -5 -17 -9 -14 -21 -24
-27 -23 -17 4 -13 -14 5 -21 22 -8 24 -8 21 6 -1 6 6 14 16 16 9 2 17 -1 17
-7 0 -6 -7 -7 -17 -4 -10 4 -14 2 -9 -5 3 -6 2 -13 -4 -17 -15 -9 -12 -25 6
-25 8 0 12 4 9 10 -4 6 1 7 11 3 10 -4 13 -8 7 -10 -7 -3 -9 -11 -6 -20 5 -12
3 -14 -8 -7 -8 4 -20 9 -28 11 -8 1 -21 9 -30 19 -15 16 -15 16 4 10 11 -4 16
-4 12 1 -5 4 -22 8 -39 9 -17 1 -25 -1 -18 -6 6 -4 11 -10 11 -14 -3 -22 1
-27 22 -21 21 6 21 6 3 -9 -11 -9 -15 -16 -9 -16 7 0 15 5 18 10 9 15 25 12
25 -5 0 -8 -3 -14 -7 -14 -26 4 -35 -2 -24 -14 6 -8 8 -17 4 -21 -4 -4 2 -9
14 -12 14 -4 20 -12 18 -24 -3 -13 2 -18 16 -17 21 1 27 17 6 17 -7 0 -13 10
-14 22 -2 23 -2 23 13 3 10 -13 15 -15 13 -5 -5 28 11 59 27 53 12 -4 13 -8 3
-14 -16 -9 -20 -108 -6 -126 12 -16 -5 -17 -20 -2 -6 6 -9 18 -6 25 3 8 0 14
-5 14 -21 0 -21 -17 -2 -35 11 -10 17 -22 14 -26 -8 -13 10 -11 23 2 9 9 11 1
8 -30 -2 -22 0 -41 4 -41 10 0 8 71 -2 88 -5 6 -4 12 2 12 24 0 37 -79 18
-111 -7 -12 -5 -24 9 -42 10 -15 23 -27 28 -27 5 0 3 7 -4 15 -12 15 -6 35 11
35 6 0 8 -4 5 -9 -8 -12 4 -41 16 -41 5 0 6 4 3 10 -13 21 -14 51 -2 47 7 -3
11 -10 9 -17 -1 -7 4 -23 13 -36 18 -28 19 -38 3 -27 -7 4 -25 8 -40 9 -22 0
-25 -3 -18 -16 5 -9 16 -22 24 -29 8 -7 12 -19 9 -27 -3 -8 -2 -14 3 -13 5 1
16 1 24 0 13 -1 13 -3 0 -12 -13 -9 -12 -10 2 -5 9 3 27 -3 39 -12 20 -17 20
-19 3 -32 -16 -13 -17 -13 -11 2 8 22 -11 34 -26 19 -9 -9 -7 -11 8 -5 16 6
18 5 8 -7 -14 -14 -17 -30 -5 -28 25 4 34 -2 23 -14 -11 -14 -5 -27 11 -27 5
0 6 12 4 27 -5 27 8 53 26 53 7 0 7 -4 0 -12 -5 -7 -9 -24 -8 -38 1 -14 -5
-34 -13 -45 -13 -16 -13 -18 -1 -9 12 9 65 12 65 4 0 -8 67 -6 71 2 11 18 -14
32 -31 18 -8 -7 -15 -8 -15 -2 0 5 6 15 14 21 10 9 19 7 37 -9 l24 -20 -22
-19 c-12 -10 -32 -17 -45 -15 -13 2 -38 5 -55 8 -18 3 -35 1 -38 -4 -3 -6 0
-7 7 -5 8 3 22 -1 32 -8 16 -12 17 -15 3 -29 -14 -13 -6 -15 71 -14 86 2 136
-9 126 -26 -3 -4 -11 -5 -17 -1 -6 4 -51 8 -100 8 -48 1 -83 -2 -76 -6 7 -4
18 -5 25 -2 7 2 11 -3 11 -14 -2 -13 4 -17 22 -15 20 2 22 0 11 -13 -7 -8 -16
-12 -21 -9 -5 3 -6 -3 -2 -12 4 -12 3 -15 -5 -10 -8 5 -10 2 -6 -9 4 -9 12
-14 19 -11 16 6 57 -22 50 -35 -4 -5 -11 -9 -16 -9 -6 0 -8 4 -4 9 9 15 -15
25 -28 12 -9 -9 -7 -10 8 -5 18 7 19 6 6 -10 -8 -9 -10 -16 -5 -15 16 5 54
-12 49 -22 -4 -5 -15 -5 -28 2 -19 9 -20 8 -6 -3 9 -7 17 -17 18 -23 3 -24 13
-46 18 -42 2 3 0 15 -7 26 -7 13 -7 21 -1 21 6 0 15 -9 21 -21 8 -14 17 -18
28 -14 9 4 22 7 27 6 47 -4 59 -7 62 -17 4 -12 -25 -12 -44 -1 -7 5 -21 4 -30
-1 -10 -5 -23 -7 -30 -5 -6 2 -14 0 -17 -5 -5 -8 1 -10 44 -14 26 -3 26 -14 0
-30 -11 -7 -20 -16 -20 -21 0 -4 5 -5 12 -1 8 5 9 2 5 -10 -5 -11 -3 -15 5
-10 7 5 9 2 5 -9 -4 -11 -2 -14 8 -10 13 4 13 8 0 26 -15 21 -5 47 17 47 6 0
5 -6 -2 -15 -13 -16 -4 -39 12 -29 8 5 9 1 5 -10 -4 -10 -3 -15 3 -11 18 11
10 -15 -10 -35 -11 -11 -16 -20 -12 -20 4 0 13 5 19 11 12 12 33 4 33 -12 0
-6 -4 -7 -10 -4 -5 3 -18 1 -27 -5 -15 -8 -12 -10 15 -6 23 3 32 1 29 -7 -2
-7 -13 -11 -23 -10 -10 1 -13 0 -6 -3 6 -3 10 -9 7 -14 -3 -4 2 -21 10 -36 9
-19 15 -23 15 -12 0 9 -4 20 -10 23 -5 3 -10 11 -10 17 0 7 5 6 15 -2 15 -13
39 -5 30 11 -4 5 -2 9 4 9 20 0 21 -20 1 -32 -11 -7 -20 -17 -20 -22 0 -4 7
-3 15 4 9 7 18 10 21 8 3 -3 -6 -15 -20 -26 -24 -18 -24 -21 -9 -33 13 -11 17
-11 20 -1 3 6 8 12 12 12 9 0 8 -42 -2 -57 -5 -8 -3 -13 3 -13 7 0 9 -7 6 -16
-3 -9 -2 -12 5 -9 5 4 7 16 3 28 -6 21 -5 21 12 5 17 -17 17 -18 -2 -39 -10
-13 -13 -19 -5 -14 11 6 13 4 8 -8 -3 -8 1 -21 8 -27 8 -7 12 -16 9 -21 -3 -5
0 -8 8 -7 7 2 12 -5 12 -14 -2 -16 1 -16 24 2 14 11 27 19 29 17 7 -7 -9 -37
-17 -32 -4 3 -13 -2 -20 -9 -9 -12 -7 -17 9 -26 12 -6 21 -16 21 -22 0 -6 -7
-5 -17 3 -16 13 -17 12 -4 -3 15 -20 35 -14 27 8 -3 8 -1 14 3 14 20 0 19 -30
-2 -45 -12 -8 -17 -15 -11 -15 5 0 15 5 22 12 7 7 12 8 12 2 0 -5 -5 -15 -11
-21 -14 -14 -2 -36 13 -27 8 5 9 1 5 -10 -4 -10 -3 -15 3 -11 5 3 7 20 4 38
-3 17 -6 42 -8 55 -2 13 1 21 8 19 19 -6 25 -119 7 -125 -6 -2 -11 -8 -11 -13
0 -6 10 -3 22 5 14 10 27 12 38 6 10 -5 19 -7 22 -5 3 3 5 -8 5 -24 0 -26 -3
-29 -18 -20 -26 14 -37 34 -13 25 14 -5 16 -4 8 4 -12 12 -44 3 -44 -12 0 -5
5 -6 10 -3 6 3 10 2 10 -4 0 -5 -6 -12 -12 -15 -7 -3 -2 -3 12 1 22 5 23 4 12
-10 -11 -13 -10 -16 7 -22 24 -7 41 -27 46 -55 3 -14 0 -20 -8 -17 -7 2 -11
11 -9 20 1 8 -2 18 -8 22 -6 4 -7 -1 -3 -11 5 -13 3 -15 -7 -9 -7 5 -5 -3 6
-17 17 -23 21 -24 40 -12 20 13 34 10 34 -7 0 -5 -6 -6 -14 -3 -8 3 -19 -3
-25 -14 -8 -16 -7 -23 6 -33 9 -8 14 -9 10 -3 -7 13 17 27 27 17 9 -9 7 -25
-1 -20 -5 3 -15 -2 -23 -11 -13 -14 -12 -15 3 -9 21 8 49 -2 41 -14 -3 -5 3
-6 12 -2 13 5 14 8 5 11 -8 3 -3 11 15 23 17 11 32 15 39 9 6 -5 17 -5 25 2
12 8 11 9 -3 4 -12 -4 -17 -2 -15 6 2 6 14 13 27 15 13 2 20 -1 16 -7 -3 -5 0
-7 9 -4 10 4 14 18 12 50 -2 45 7 66 17 40 3 -8 4 -26 1 -40 -5 -32 13 -34 48
-6 14 10 28 16 32 13 3 -3 6 -1 6 5 0 17 -8 15 -37 -8 -30 -24 -42 -25 -39 -5
3 19 16 32 16 16 0 -8 10 -5 26 8 19 15 31 18 44 11 12 -6 23 -5 36 4 16 13
14 14 -21 12 -22 0 -46 -5 -52 -9 -7 -5 -13 -4 -13 0 0 5 6 15 13 22 10 11 8
11 -10 0 -16 -10 -19 -16 -11 -26 11 -14 0 -18 -17 -5 -19 14 -14 30 13 38 15
4 32 6 37 4 6 -2 26 -4 45 -5 51 -4 52 -4 44 -16 -3 -6 5 -3 20 6 14 9 23 21
20 26 -3 5 0 9 7 9 7 0 5 8 -6 20 -10 11 -13 20 -7 20 6 0 19 -11 28 -25 9
-14 19 -23 22 -21 3 3 0 12 -7 19 -8 11 -6 18 11 33 12 10 18 13 14 6 -4 -6
-2 -12 3 -12 6 0 11 -5 11 -11 0 -8 -5 -8 -15 1 -10 9 -15 9 -15 1 0 -6 5 -11
11 -11 5 0 7 -5 3 -12 -4 -7 -3 -8 4 -4 16 10 52 -12 46 -28 -3 -7 3 -19 12
-27 15 -12 16 -12 10 0 -6 9 -5 12 5 9 8 -3 13 -10 12 -16 -2 -6 6 -14 17 -17
11 -4 18 -11 14 -16 -3 -5 -2 -9 3 -8 29 5 45 -2 38 -18 -5 -14 -3 -15 5 -7 9
9 9 17 1 31 -7 15 -6 25 5 42 9 12 20 19 25 15 6 -3 3 -11 -7 -18 -13 -10 -14
-17 -6 -32 6 -12 7 -26 2 -34 -5 -8 -6 -18 -3 -24 4 -5 -1 -7 -10 -3 -13 5
-14 2 -8 -16 5 -13 16 -21 25 -19 18 3 22 -13 6 -21 -6 -3 -5 -4 2 -3 7 2 13
11 13 21 0 10 5 20 12 22 8 3 10 -4 7 -20 -4 -26 15 -50 36 -45 7 2 14 -2 17
-9 5 -15 -33 -9 -53 8 -8 7 -17 9 -21 6 -3 -4 2 -9 11 -13 9 -3 14 -10 11 -14
-3 -5 0 -12 6 -16 8 -5 9 -3 4 6 -5 8 -3 11 6 8 8 -3 14 -13 14 -23 0 -10 6
-20 14 -23 9 -3 11 1 7 15 -6 18 -1 19 69 18 52 -1 79 3 86 12 6 7 17 13 23
13 6 0 -1 -12 -17 -25 -16 -14 -34 -22 -43 -18 -13 5 -15 2 -10 -14 5 -17 1
-19 -34 -18 -21 1 -37 -1 -35 -3 3 -3 -3 -10 -12 -17 -13 -9 -13 -14 -3 -20 9
-5 11 -4 6 3 -4 7 -3 12 3 12 5 0 11 -3 14 -7 2 -5 2 -2 0 6 -2 8 2 11 12 8 8
-4 17 -2 20 3 4 6 11 10 18 10 6 0 -1 -11 -16 -25 -33 -31 -33 -33 -4 -31 14
1 21 7 19 17 -2 12 5 16 23 14 14 -2 28 2 32 7 3 6 1 8 -4 5 -12 -8 -26 20
-17 34 10 16 24 10 18 -9 -5 -14 -4 -15 5 -2 7 10 11 11 11 3 0 -7 5 -13 12
-13 6 0 3 9 -7 20 -19 20 -9 28 13 10 9 -7 9 -7 2 2 -15 18 -12 26 7 24 12 -1
17 8 19 32 2 38 29 72 56 72 11 0 16 -5 13 -10 -4 -6 -11 -7 -17 -4 -7 5 -8 2
-3 -6 6 -10 4 -12 -8 -7 -9 3 -19 1 -23 -5 -4 -7 -3 -8 4 -4 7 4 12 3 12 -3 0
-5 -4 -13 -10 -16 -5 -3 -10 -11 -10 -17 0 -6 13 5 30 23 16 19 30 29 30 22 0
-6 -5 -15 -10 -18 -6 -4 -8 -11 -4 -16 10 -16 22 0 20 26 -3 22 0 24 24 20 15
-3 35 2 46 11 18 15 18 15 -2 5 -12 -6 -24 -8 -27 -4 -4 3 -16 6 -27 7 -11 0
-20 6 -20 11 0 13 21 14 37 2 7 -5 19 -4 30 1 10 5 25 7 33 5 9 -3 7 1 -5 11
-23 18 -13 21 17 5 15 -8 19 -8 14 0 -4 6 -2 11 5 11 8 0 8 4 -1 15 -8 9 -9
15 -2 15 6 0 13 -4 17 -10 3 -5 13 -6 21 -3 21 8 1 21 -29 19 -15 -1 -21 -7
-19 -19 2 -9 -2 -17 -8 -17 -5 0 -10 6 -10 14 0 8 -3 22 -6 30 -5 12 -2 15 10
10 11 -4 16 -1 16 10 0 9 4 16 10 16 5 0 7 -7 4 -15 -4 -8 -1 -15 6 -15 6 0 9
4 6 9 -3 5 1 11 9 15 8 3 15 11 14 18 0 10 -2 10 -6 1 -5 -15 -23 -18 -23 -5
0 5 11 14 24 20 22 10 24 9 21 -10 -2 -11 -9 -26 -15 -33 -8 -9 -6 -14 6 -19
20 -8 36 2 27 17 -11 18 -10 78 2 74 5 -2 9 -11 9 -20 -1 -8 4 -13 11 -11 6 3
12 -2 12 -11 0 -9 -6 -14 -14 -11 -7 3 -13 1 -13 -4 0 -15 26 -12 39 3 8 10 7
17 -1 25 -12 12 5 42 24 42 6 0 5 -7 -2 -15 -11 -13 -11 -18 0 -28 8 -8 11 -8
7 -1 -7 13 32 69 41 60 3 -3 -3 -16 -14 -28 -10 -13 -3 -8 17 10 19 18 39 29
44 25 4 -5 5 -2 1 5 -4 7 -2 12 5 12 7 0 9 3 6 6 -4 4 -13 1 -22 -6 -9 -8 -15
-8 -15 -2 0 15 20 26 46 27 28 0 66 35 59 53 -3 9 1 12 13 8 32 -10 44 8 22
32 -12 12 -16 22 -10 22 5 0 10 5 10 11 0 8 -5 7 -15 -1 -14 -12 -14 -15 0
-30 17 -18 19 -30 7 -30 -5 0 -15 11 -22 25 -13 24 -11 27 21 55 19 16 40 29
48 30 8 0 11 -3 7 -8 -4 -4 -13 -7 -19 -7 -13 0 -19 -63 -6 -71 5 -3 6 2 3 10
-6 15 9 21 43 17 7 -1 20 10 29 24 9 13 20 22 25 19 5 -3 16 2 25 10 8 9 12
16 7 16 -5 0 -15 -6 -21 -12 -10 -10 -12 -8 -9 9 3 24 17 44 17 26 0 -6 9 -13
19 -16 14 -3 18 -1 14 9 -4 10 0 12 13 8 16 -5 16 -4 4 5 -13 9 -13 11 3 11 9
0 17 5 17 11 0 5 4 8 8 5 5 -3 20 6 35 20 15 14 27 22 27 18 0 -3 7 -1 15 6 8
6 13 17 12 23 -1 7 6 11 16 9 20 -3 22 9 5 27 -11 11 -9 12 9 7 17 -5 29 -1
47 17 14 14 28 22 31 18 4 -3 5 1 3 9 -2 8 2 14 9 15 6 0 15 4 20 8 4 5 2 7
-6 5 -7 -2 -15 2 -18 8 -2 7 7 11 23 10 19 -1 28 4 30 18 3 21 44 67 44 49 0
-6 -7 -16 -15 -23 -8 -7 -15 -17 -15 -22 0 -6 9 0 20 13 10 13 19 20 20 15 0
-5 6 -3 14 4 8 6 12 19 9 27 -5 12 -3 14 7 8 9 -6 11 -4 5 5 -6 10 -4 12 8 7
12 -4 14 -2 10 11 -6 15 -5 16 13 2 19 -14 19 -14 0 8 -18 21 -10 32 10 12 6
-6 15 -5 24 1 12 9 12 10 -3 5 -12 -4 -17 -2 -14 6 2 7 17 12 35 11 19 -1 33
4 36 13 4 10 2 12 -5 8 -7 -4 -10 -1 -7 7 3 8 13 14 24 14 13 0 19 8 21 27 1
23 -2 27 -22 26 -13 -1 -21 -6 -18 -12 3 -5 1 -6 -5 -2 -8 5 -10 2 -6 -9 4
-10 2 -14 -8 -10 -16 6 -45 -21 -35 -32 9 -9 -12 -33 -29 -33 -27 0 -13 27 33
66 26 21 50 38 55 37 4 -2 8 4 8 12 0 8 5 15 11 15 5 0 7 -4 4 -10 -3 -5 -1
-10 4 -10 6 0 11 7 11 15 0 8 4 15 9 15 5 0 8 -19 6 -42 -3 -33 -1 -39 6 -25
6 9 14 15 20 12 5 -4 9 -1 9 4 0 6 -7 11 -16 11 -11 0 -14 5 -10 16 4 9 1 23
-5 30 -9 11 -8 14 4 14 16 0 30 -26 22 -40 -3 -4 2 -10 9 -13 18 -7 40 18 30
34 -5 9 -2 10 9 6 12 -4 14 -2 10 11 -5 13 -3 15 7 5 18 -17 75 24 59 43 -14
17 -19 63 -8 70 9 5 11 -2 13 -40 1 -11 7 -20 14 -22 7 -1 8 0 2 3 -5 2 -10 9
-10 14 0 6 4 8 9 5 5 -3 9 6 9 20 0 19 -3 23 -10 13 -7 -11 -8 -9 -6 6 2 11
10 21 19 23 13 2 16 -5 15 -36 -1 -29 2 -38 11 -35 10 4 11 9 3 18 -7 8 -7 15
-1 19 5 3 11 2 13 -4 4 -13 78 47 78 64 0 8 -13 13 -32 14 -27 1 -30 -1 -15
-9 9 -6 22 -7 27 -4 6 3 10 2 10 -4 0 -19 -21 -23 -45 -7 -21 14 -24 14 -29 0
-3 -8 -11 -12 -17 -9 -6 4 4 17 25 32 20 13 42 21 48 17 7 -5 9 -2 6 7 -7 18
28 24 38 7 5 -8 1 -9 -12 -4 -15 6 -17 5 -6 -5 10 -11 16 -10 30 5 9 11 12 16
6 13 -7 -4 -14 2 -17 13 -4 16 -2 18 13 10 24 -13 33 -13 25 0 -3 6 1 10 10
10 9 0 14 -4 10 -9 -3 -5 0 -13 6 -17 8 -5 9 -3 4 6 -6 10 -4 12 9 7 10 -4 15
-3 11 3 -3 6 -1 10 5 10 7 0 9 7 6 16 -5 13 -2 15 14 11 10 -3 18 0 17 5 -1 6
4 13 12 16 9 3 11 0 6 -8 -5 -9 -4 -11 4 -6 7 5 9 12 3 19 -15 22 -8 52 12 49
13 -2 16 1 10 10 -6 10 -4 10 9 -1 9 -7 17 -19 17 -25 0 -7 -3 -7 -8 -1 -13
18 -41 14 -39 -6 1 -20 27 -27 27 -8 0 5 4 8 9 5 22 -14 47 50 26 67 -6 5 -4
7 5 4 8 -2 14 -11 12 -21 -4 -20 21 -21 37 -2 8 10 9 16 1 21 -13 8 -13 25 1
25 5 0 8 -4 5 -9 -3 -5 2 -15 12 -22 9 -7 14 -10 10 -5 -11 13 21 39 39 31 10
-3 14 -3 11 1 -4 3 -1 22 7 41 8 19 13 38 10 42 -2 4 12 14 31 23 18 9 34 11
34 6 0 -5 -7 -11 -15 -14 -8 -4 -15 -11 -15 -17 0 -5 9 -2 20 8 11 10 20 24
20 32 0 7 7 13 15 13 8 0 15 5 15 10 0 6 6 10 14 10 8 0 17 7 20 16 3 8 9 13
14 11 4 -3 16 1 27 9 10 8 14 14 7 14 -6 0 -18 13 -26 28 -13 26 -13 29 5 40
27 17 37 8 33 -30 -1 -18 0 -27 3 -20 2 6 9 10 14 6 5 -3 9 0 9 5 0 6 -4 11
-10 11 -5 0 -10 4 -10 8 0 5 14 8 31 7 21 -1 36 5 50 23 30 38 21 70 -15 56
-13 -5 -14 -9 -5 -20 10 -12 7 -13 -12 -10 -13 3 -25 5 -27 5 -1 1 8 12 20 25
13 13 24 22 26 21 1 -1 17 12 35 29 18 17 47 43 64 58 24 20 30 32 26 50 -5
18 -97 145 -122 168 -4 3 -62 75 -131 160 -68 85 -129 160 -135 167 -5 6 -22
27 -36 45 -23 28 -155 191 -207 253 -9 11 -44 54 -77 95 -32 41 -64 80 -70 86
-5 7 -41 51 -80 99 -38 48 -95 118 -125 154 -30 37 -71 87 -90 110 -34 42 -79
124 -243 445 -42 82 -82 155 -88 162 -6 8 -8 14 -4 14 4 0 3 6 -2 13 -10 11
-58 103 -256 487 -84 163 -162 315 -322 625 -45 88 -117 228 -160 310 -42 83
-81 154 -86 160 -5 5 -9 17 -9 27 0 10 -4 18 -10 18 -5 0 -10 5 -10 11 0 23
-42 69 -63 69 -12 -1 -60 -21 -107 -46z m-2871 -1623 c13 -13 22 -16 29 -9 8
8 10 4 9 -11 -1 -11 -10 -24 -20 -27 -15 -5 -16 -8 -5 -22 11 -14 10 -15 -7
-8 -15 5 -17 4 -8 -5 15 -15 34 -3 26 19 -6 15 -5 15 11 2 17 -13 17 -15 -10
-37 -16 -13 -21 -21 -11 -17 13 5 16 2 11 -9 -3 -8 0 -18 6 -22 7 -4 9 2 6 20
-3 18 -1 25 7 22 7 -2 11 -11 9 -19 -1 -9 5 -21 13 -28 8 -7 15 -17 15 -23 0
-5 -8 -3 -17 5 -10 9 -23 14 -29 11 -13 -4 -34 19 -39 44 -2 10 -4 18 -5 18
-1 0 -4 12 -6 28 -1 15 1 25 6 22 5 -3 12 0 16 6 8 14 -36 50 -50 42 -5 -3 -6
-1 -2 5 10 17 23 15 45 -7z m64 5 c18 -14 24 -32 8 -21 -12 7 -10 -36 2 -52 6
-9 5 -13 -3 -13 -7 0 -2 -8 10 -18 30 -24 33 -70 6 -97 -22 -22 -22 -23 -3
-34 10 -7 16 -15 13 -18 -3 -4 -15 2 -25 11 -23 21 -24 57 -2 53 24 -4 23 61
-1 74 -11 6 -17 17 -14 24 3 8 1 17 -5 20 -5 4 -7 18 -4 33 2 14 -1 32 -7 39
-14 17 2 16 25 -1z m81 -52 c9 -8 16 -24 16 -35 0 -11 5 -17 10 -14 6 3 10 -3
10 -14 0 -12 6 -21 13 -21 8 0 7 -4 -3 -10 -21 -14 -30 -12 -24 3 3 8 -1 18
-8 24 -16 12 -49 13 -42 1 3 -5 13 -7 21 -6 9 2 18 -3 21 -11 2 -8 0 -11 -5
-8 -12 8 -39 -10 -30 -19 4 -5 20 -8 34 -9 15 0 28 -5 30 -11 2 -7 -9 -10 -32
-8 -19 1 -37 -1 -40 -6 -2 -4 12 -7 32 -7 20 1 38 -4 40 -9 2 -6 -15 -10 -42
-9 -37 2 -43 0 -34 -12 7 -8 8 -13 1 -13 -5 0 -15 7 -22 15 -7 8 -8 15 -3 15
5 0 14 10 19 23 9 20 10 30 2 82 -2 12 3 20 12 20 26 0 28 30 3 39 -15 6 -15
4 2 -14 10 -11 13 -20 8 -20 -16 0 -36 28 -28 40 9 14 21 13 39 -6z m-64 -84
c0 -5 -4 -10 -10 -10 -5 0 -10 5 -10 10 0 6 5 10 10 10 6 0 10 -4 10 -10z m75
-20 c3 -5 1 -10 -4 -10 -6 0 -11 5 -11 10 0 6 2 10 4 10 3 0 8 -4 11 -10z m57
-22 c7 -13 11 -29 9 -37 -1 -7 1 -11 6 -8 14 9 33 -42 20 -50 -18 -12 -61 -11
-69 1 -15 22 -7 28 17 12 15 -10 25 -12 25 -6 0 6 5 8 10 5 6 -3 10 -1 10 5 0
6 -8 9 -18 6 -13 -4 -18 0 -20 14 -1 11 -2 28 -3 38 -1 9 -6 23 -12 30 -6 8
-6 12 1 12 6 0 17 -10 24 -22z m-12 -61 c0 -5 -7 -7 -15 -4 -8 4 -17 2 -21 -4
-3 -6 -12 -8 -19 -5 -8 3 -16 -3 -19 -12 -4 -10 -16 -18 -28 -19 -23 -2 -23
-2 2 19 14 11 24 24 23 28 -1 3 16 6 38 6 21 0 39 -4 39 -9z m-38 -39 c-9 -9
-15 -9 -24 0 -9 9 -7 12 12 12 19 0 21 -3 12 -12z m101 -15 c-4 -11 -3 -14 5
-9 7 4 12 1 12 -8 0 -8 3 -16 8 -18 11 -5 52 -84 52 -101 0 -10 -8 -15 -20
-14 -11 1 -18 6 -16 12 2 5 9 9 15 8 6 -2 11 2 11 7 0 13 -13 13 -27 -1 -9 -9
-11 -3 -9 23 3 36 -5 52 -38 78 -18 13 -19 13 -11 0 6 -8 10 -44 11 -80 0 -52
-4 -70 -19 -87 -15 -17 -17 -23 -7 -23 11 0 10 -4 -3 -17 -13 -13 -20 -14 -29
-5 -9 9 -5 17 14 37 23 23 25 32 23 103 -2 75 6 112 25 112 5 0 6 -7 3 -17z
m-35 -73 c4 -11 2 -12 -9 -5 -17 12 -39 13 -57 1 -7 -4 -19 -3 -26 3 -7 6 -17
7 -21 3 -5 -4 -5 -2 -2 4 10 17 109 12 115 -6z m57 11 c3 -5 0 -13 -6 -17 -8
-4 -7 -9 2 -16 11 -7 11 -11 2 -15 -10 -4 -10 -9 2 -26 17 -25 43 -30 65 -14
8 6 12 7 8 3 -4 -5 -3 -15 2 -21 8 -9 3 -12 -19 -9 -31 4 -48 -10 -48 -38 0
-13 4 -15 13 -7 9 7 14 5 19 -11 4 -11 11 -17 17 -14 7 5 8 2 3 -5 -5 -9 -10
-10 -18 -2 -6 6 -16 11 -22 11 -5 0 -3 -4 5 -10 8 -5 11 -13 6 -17 -5 -4 -11
-2 -13 5 -5 14 -16 24 -48 46 -19 14 -19 15 -1 35 22 24 36 20 16 -4 -10 -12
-10 -18 -2 -26 7 -5 10 -6 7 -2 -3 3 2 17 10 29 13 21 13 23 -3 28 -14 5 -18
17 -18 56 0 47 8 62 21 41z m-78 -42 c0 -20 -4 -26 -16 -22 -14 4 -14 3 -1 -5
10 -8 18 -8 27 0 9 7 13 7 13 0 0 -17 -18 -24 -37 -13 -24 13 -26 67 -3 67 11
0 17 -9 17 -27z m-37 1 c0 -5 -9 -10 -20 -10 -11 0 -20 5 -20 10 0 6 9 10 20
10 11 0 20 -4 20 -10z m60 0 c0 -5 -4 -10 -10 -10 -5 0 -10 5 -10 10 0 6 5 10
10 10 6 0 10 -4 10 -10z m148 -95 c11 -10 -9 -35 -28 -35 -12 0 -19 4 -15 10
3 5 13 7 23 4 13 -4 14 -3 4 4 -8 5 -24 8 -38 6 -22 -2 -31 6 -19 18 6 6 66 1
73 -7z m-122 -71 c-4 -9 -2 -22 4 -29 6 -7 7 -16 2 -19 -5 -3 -16 4 -25 15 -9
10 -12 19 -7 19 6 0 10 7 10 15 0 8 5 15 11 15 6 0 8 -7 5 -16z m-19 -278 c-3
-6 2 -19 11 -28 8 -10 10 -18 5 -18 -15 0 -36 28 -29 39 4 5 3 12 -2 15 -4 2
-8 -4 -9 -14 -2 -21 29 -52 47 -48 7 2 14 -2 17 -9 3 -8 -4 -11 -19 -8 -28 5
-71 52 -62 68 5 9 3 9 -6 0 -11 -10 -11 -15 1 -29 12 -15 12 -17 0 -13 -16 6
-50 52 -35 48 16 -5 54 12 54 23 0 6 6 6 15 -2 9 -7 14 -18 12 -24z m74 -70
c-17 -18 -20 -29 -14 -43 5 -10 8 -30 7 -45 -2 -15 2 -31 8 -34 7 -5 9 -2 5 8
-6 17 10 38 30 38 7 0 13 -4 13 -10 0 -5 -6 -9 -12 -7 -8 1 -13 -8 -12 -25 1
-32 -3 -34 -34 -12 -16 11 -21 22 -17 41 2 14 0 34 -5 44 -8 13 -3 25 18 50
15 18 22 30 15 26 -6 -4 -13 -4 -16 0 -2 5 -2 2 -1 -4 4 -16 -8 -17 -24 -1
-14 14 -16 32 -3 23 5 -3 12 -1 16 5 4 6 15 2 27 -10 l22 -20 -23 -24z m-115
17 c3 3 16 -3 27 -14 12 -11 27 -17 33 -15 7 3 13 -3 13 -12 0 -9 2 -29 5 -44
2 -16 0 -28 -7 -28 -6 0 0 -11 13 -25 18 -19 20 -28 12 -38 -13 -15 -10 -16
56 -20 39 -2 65 -31 56 -61 -6 -21 -6 -21 9 -1 11 15 12 22 4 27 -7 4 -8 8 -4
8 4 0 -4 11 -20 24 -15 13 -30 21 -33 18 -3 -4 -14 -8 -25 -10 -18 -2 -18 -1
4 18 13 11 19 20 14 20 -5 0 -9 9 -10 20 -1 11 2 18 7 15 22 -14 19 19 -4 40
-32 29 -33 39 -5 30 19 -6 20 -5 8 8 -20 22 -42 2 -28 -25 8 -14 8 -23 0 -31
-7 -7 -10 -4 -10 9 0 10 -1 27 -3 38 -5 31 26 42 50 18 11 -11 18 -23 15 -26
-3 -3 2 -8 11 -12 9 -3 16 -10 16 -15 0 -5 -12 -2 -27 7 -27 17 -27 16 2 -8
28 -25 28 -26 8 -32 -15 -5 -20 -13 -18 -28 5 -24 35 -49 52 -43 6 2 12 -4 12
-13 0 -9 2 -29 5 -44 2 -16 0 -28 -5 -28 -6 0 -7 -6 -2 -12 12 -20 13 -41 2
-57 -9 -14 -10 -14 -5 1 3 10 1 20 -5 23 -5 4 -7 11 -3 16 3 6 -2 16 -12 24
-11 7 -16 17 -12 20 14 14 -11 43 -37 43 -22 0 -23 -2 -9 -13 14 -9 15 -15 5
-31 -11 -19 -11 -19 -9 0 2 13 -9 28 -32 43 -32 22 -69 66 -41 49 21 -13 11
12 -14 35 -13 13 -25 29 -25 34 0 6 4 5 8 -2 6 -9 11 -7 20 7 8 13 9 20 1 20
-5 0 -8 3 -6 8 2 4 -9 17 -24 30 -16 13 -29 19 -29 15 0 -5 -13 -9 -30 -9 -30
0 -39 9 -20 21 6 3 10 1 10 -5 0 -6 5 -8 11 -4 8 4 4 11 -10 18 -12 7 -18 15
-15 19 4 4 16 0 26 -10 10 -9 21 -14 24 -10z m-1 -74 c11 -17 -1 -21 -15 -4
-8 9 -8 15 -2 15 6 0 14 -5 17 -11z m225 -40 c0 -11 4 -18 9 -15 5 3 11 0 14
-7 3 -7 -4 -13 -17 -13 -18 -1 -22 4 -22 27 0 16 3 29 8 29 4 0 8 -9 8 -21z
m-100 -59 c0 -5 -5 -10 -11 -10 -5 0 -7 5 -4 10 3 6 8 10 11 10 2 0 4 -4 4
-10z m203 -80 c-3 -11 -9 -20 -15 -20 -5 0 -4 9 2 20 6 11 12 20 14 20 2 0 2
-9 -1 -20z m12 -30 c-6 -9 8 -14 28 -11 5 1 6 -3 2 -9 -3 -5 -1 -10 4 -10 6 0
11 -5 11 -11 0 -8 -4 -8 -14 0 -10 8 -16 9 -21 1 -3 -5 -1 -10 6 -10 21 0 1
-13 -24 -15 -20 -3 -24 1 -23 24 0 14 8 31 16 38 19 15 23 16 15 3z m62 -66
c-3 -3 -12 -4 -19 -1 -8 3 -5 6 6 6 11 1 17 -2 13 -5z m37 -33 c-4 -3 -9 0
-11 7 -3 6 -10 9 -15 6 -7 -4 -8 -2 -4 5 6 9 11 9 22 0 8 -6 12 -15 8 -18z
m-14 -22 c0 -6 -4 -7 -10 -4 -5 3 -10 11 -10 16 0 6 5 7 10 4 6 -3 10 -11 10
-16z m-37 -1 c-12 -20 -13 -41 -1 -55 13 -16 -4 -17 -19 -2 -6 6 -9 19 -6 28
5 14 4 14 -8 1 -8 -9 -23 -22 -34 -30 -15 -10 -17 -10 -8 -1 6 7 9 20 6 29 -4
10 -2 13 5 8 7 -4 24 2 38 13 30 24 39 26 27 9z m77 6 c0 -8 -19 -13 -24 -6
-3 5 1 9 9 9 8 0 15 -2 15 -3z m-58 -36 c2 -17 9 -22 23 -20 17 3 15 0 -8 -18
-15 -12 -25 -26 -22 -31 4 -5 4 -9 1 -9 -2 0 -11 -3 -19 -6 -10 -4 -15 1 -14
13 1 10 -3 17 -10 16 -6 -2 -11 7 -10 18 l1 21 17 -21 c15 -18 18 -19 30 -5 8
10 9 18 2 22 -12 8 -13 42 -2 42 4 0 9 -10 11 -22z m57 5 c-13 -15 -12 -16 9
-11 12 4 22 2 22 -3 0 -12 -37 -11 -45 1 -4 6 -11 8 -16 5 -5 -4 -9 -1 -9 5 0
7 7 10 15 7 8 -4 17 -2 20 3 4 6 9 10 12 10 3 0 -1 -8 -8 -17z m57 -54 c0 -12
-7 -24 -14 -25 -7 -1 -8 0 -2 3 17 8 11 23 -7 17 -17 -5 -17 -5 -1 9 10 8 14
18 10 22 -4 5 -2 5 4 2 6 -4 11 -16 10 -28z m-61 11 c-3 -5 -12 -10 -18 -10
-7 0 -6 4 3 10 19 12 23 12 15 0z m25 -50 c0 -5 -4 -10 -10 -10 -5 0 -10 5
-10 10 0 6 5 10 10 10 6 0 10 -4 10 -10z m55 -21 c-5 -14 -3 -17 10 -13 10 4
14 13 10 23 -5 13 -4 14 7 3 11 -11 10 -16 -6 -27 -24 -18 -39 -9 -30 17 6 20
5 20 -17 4 -13 -9 -28 -16 -34 -16 -5 0 4 8 20 19 34 21 48 18 40 -10z m-23
-55 c-6 -12 -9 -7 -9 16 0 23 3 28 9 16 5 -9 5 -23 0 -32z m68 17 c0 -9 -30
-25 -42 -23 -5 1 -8 -3 -8 -10 0 -6 -3 -8 -6 -5 -9 9 16 38 27 31 5 -3 9 0 9
5 0 6 5 11 10 11 6 0 10 -4 10 -9z m24 -35 c-6 -16 -24 -13 -24 5 0 6 5 7 10
4 6 -3 10 -1 10 6 0 7 2 10 5 7 3 -3 3 -13 -1 -22z m-39 -6 c-3 -5 -12 -10
-18 -10 -7 0 -6 4 3 10 19 12 23 12 15 0z m75 4 c0 -7 -27 -34 -34 -34 -4 0
-1 9 6 20 12 19 28 27 28 14z m-75 -24 c10 9 15 9 15 1 0 -6 -4 -11 -10 -11
-5 0 -9 -5 -7 -11 1 -6 -9 -18 -23 -26 l-25 -15 25 22 c18 16 20 20 7 16 -11
-3 -16 -2 -12 4 3 6 1 10 -4 10 -6 0 -11 5 -11 11 0 8 5 8 15 -1 12 -10 18
-10 30 0z m69 -32 c-4 -13 -8 -27 -9 -31 0 -5 -8 -14 -17 -21 -10 -7 -14 -17
-10 -21 4 -5 1 -5 -5 -1 -18 10 -16 26 2 26 8 0 14 3 14 8 -2 10 24 72 29 67
2 -2 0 -14 -4 -27z m-32 5 c-6 -2 -9 -10 -6 -15 4 -7 2 -8 -4 -4 -18 11 -14
26 6 25 10 0 12 -3 4 -6z m76 -11 c2 -7 -1 -12 -8 -12 -6 0 -9 4 -6 9 4 5 1
12 -4 14 -6 3 -5 4 2 3 6 -1 14 -8 16 -14z m-98 -22 c0 -5 -4 -10 -10 -10 -5
0 -10 5 -10 10 0 6 5 10 10 10 6 0 10 -4 10 -10z m125 0 c3 -5 1 -10 -4 -10
-6 0 -11 5 -11 10 0 6 2 10 4 10 3 0 8 -4 11 -10z m-55 -44 c-7 -9 -16 -13
-21 -10 -5 3 -9 0 -9 -5 0 -6 -5 -11 -11 -11 -6 0 -1 14 12 31 15 21 25 27 32
20 7 -7 6 -15 -3 -25z m36 -11 c-6 -17 -26 -20 -26 -4 0 5 5 7 10 4 6 -3 10 4
11 17 0 13 3 17 6 10 3 -7 2 -19 -1 -27z m69 -5 c4 -6 -1 -7 -12 -3 -16 6 -17
5 -3 -13 14 -18 14 -18 -2 -5 -10 7 -15 17 -12 22 7 12 21 11 29 -1z m-95 -25
c13 -16 35 -21 25 -6 -3 5 0 13 5 16 14 9 50 -23 50 -44 0 -14 2 -14 10 -1 5
8 10 11 10 5 0 -5 -4 -17 -9 -24 -8 -12 -11 -9 -16 12 -4 15 -11 24 -17 21 -5
-3 -7 -13 -3 -23 5 -12 4 -13 -6 -4 -9 9 -9 16 -1 26 12 14 7 27 -10 27 -5 0
-6 -5 -3 -10 3 -6 -1 -13 -10 -16 -14 -6 -14 -8 1 -25 23 -25 9 -24 -16 1 -11
11 -15 20 -9 20 8 0 8 5 -1 15 -17 20 -31 19 -24 -2 5 -15 4 -15 -4 -3 -20 27
6 41 28 15z m-30 -49 c-1 -6 -6 -2 -13 10 -7 12 -19 19 -27 17 -13 -4 -13 -3
0 6 11 8 18 6 28 -6 6 -9 12 -22 12 -27z m174 15 c4 -5 -3 -7 -14 -4 -23 6
-26 13 -6 13 8 0 17 -4 20 -9z m-138 -28 c25 -34 12 -44 -22 -18 -19 15 -19
15 1 8 18 -6 18 -5 6 10 -7 9 -10 17 -6 17 4 0 14 -8 21 -17z m138 -9 c3 -9
12 -12 18 -9 7 4 2 -3 -11 -14 -13 -12 -28 -21 -35 -20 -7 0 -6 2 2 6 6 2 10
9 7 14 -4 5 2 6 12 2 17 -6 16 -5 -1 16 l-20 22 -11 -28 c-7 -15 -10 -31 -8
-35 2 -5 -1 -8 -6 -8 -14 0 -14 1 4 43 15 37 37 42 49 11z m-68 -5 c12 -20
-11 -30 -32 -13 -18 15 -18 15 4 4 13 -6 22 -7 22 -1 0 5 -6 12 -12 14 -10 4
-10 6 -1 6 6 1 15 -4 19 -10z m94 -39 c-24 -15 -36 -11 -14 4 10 8 21 12 24
10 2 -3 -2 -9 -10 -14z m-130 -2 c0 -6 3 -8 7 -5 8 9 33 -12 33 -27 0 -7 -4
-6 -9 2 -4 8 -12 14 -17 14 -27 1 -50 28 -24 28 6 0 10 -5 10 -12z m-22 -33
c-3 -3 -9 2 -12 12 -6 14 -5 15 5 6 7 -7 10 -15 7 -18z m95 8 c-7 -3 -13 -12
-14 -21 0 -11 -2 -13 -6 -4 -6 15 17 46 26 36 3 -4 0 -9 -6 -11z m76 -24 c-7
-13 -12 -27 -11 -31 1 -5 -2 -8 -8 -8 -14 0 -13 7 6 36 17 25 16 38 -1 26 -6
-4 -15 -16 -21 -27 -6 -11 -15 -18 -19 -17 -4 2 -11 -2 -16 -9 -4 -8 -11 -10
-15 -6 -9 9 27 37 38 31 5 -3 8 2 8 10 0 18 32 38 43 26 5 -4 3 -18 -4 -31z
m-144 11 c3 -5 1 -10 -4 -10 -6 0 -11 5 -11 10 0 6 2 10 4 10 3 0 8 -4 11 -10z
m23 -30 c-7 -11 -16 -20 -20 -20 -5 0 -3 9 4 20 7 11 16 20 20 20 5 0 3 -9 -4
-20z m167 -10 c3 -5 1 -10 -4 -10 -6 0 -11 5 -11 10 0 6 2 10 4 10 3 0 8 -4
11 -10z m-140 -21 c11 -16 1 -19 -13 -3 -7 8 -8 14 -3 14 5 0 13 -5 16 -11z
m97 -11 c-7 -7 -12 -8 -12 -2 0 6 3 14 7 17 3 4 9 5 12 2 2 -3 -1 -11 -7 -17z
m39 -3 c5 4 6 -2 2 -11 -4 -11 -8 -13 -11 -6 -2 7 -8 10 -13 7 -5 -4 -6 2 -2
11 4 11 8 13 11 6 2 -7 8 -10 13 -7z m-1 -38 c19 2 22 1 10 -7 -8 -5 -11 -10
-5 -10 5 0 3 -6 -4 -12 -10 -11 -16 -8 -31 12 -11 14 -20 30 -19 35 0 6 5 3
12 -6 7 -9 22 -15 37 -12z m45 -7 c3 -5 1 -10 -4 -10 -6 0 -11 5 -11 10 0 6 2
10 4 10 3 0 8 -4 11 -10z m-100 -19 c-3 -6 -11 -11 -16 -11 -5 0 -4 6 3 14 14
16 24 13 13 -3z m103 -30 c-4 -17 -35 -17 -53 0 -6 6 2 6 18 0 22 -9 28 -8 24
1 -2 7 -10 12 -16 10 -7 -1 -10 2 -6 7 9 16 36 1 33 -18z m-73 9 c3 -6 -1 -7
-9 -4 -18 7 -21 14 -7 14 6 0 13 -4 16 -10z m-9 -28 c-4 -3 -14 2 -24 12 -16
18 -16 18 6 6 13 -6 21 -14 18 -18z m117 -12 c3 -11 1 -18 -4 -14 -5 3 -9 12
-9 20 0 20 7 17 13 -6z m-32 -4 c-9 -11 -6 -15 14 -20 24 -6 36 -26 15 -26 -5
0 -10 4 -10 9 0 9 -38 24 -53 22 -5 -1 -6 3 -2 9 3 6 10 8 15 5 5 -3 11 -1 15
5 3 5 9 10 12 10 3 0 0 -6 -6 -14z m21 -71 c6 -13 15 -22 19 -19 5 3 14 -6 20
-20 7 -14 16 -23 22 -19 6 4 7 1 2 -7 -6 -10 -11 -9 -22 5 -7 11 -13 23 -13
28 0 4 -4 5 -10 2 -5 -3 -15 5 -21 19 -8 16 -17 22 -27 19 -10 -4 -13 -2 -8 5
11 19 26 14 38 -13z m33 16 c-3 -5 -1 -12 5 -16 5 -3 15 -16 21 -28 9 -17 6
-16 -15 6 -22 24 -27 47 -10 47 3 0 3 -4 -1 -9z m-155 -31 c0 -5 -2 -10 -4
-10 -3 0 -8 5 -11 10 -3 6 -1 10 4 10 6 0 11 -4 11 -10z m89 -37 c-27 -45 -34
-54 -26 -31 3 10 2 20 -3 23 -6 4 -10 11 -10 17 0 7 5 6 14 -1 12 -10 17 -8
26 8 6 12 13 21 16 21 3 0 -5 -17 -17 -37z m36 7 c3 -5 1 -10 -4 -10 -6 0 -11
5 -11 10 0 6 2 10 4 10 3 0 8 -4 11 -10z m35 -45 c0 -5 -5 -3 -10 5 -8 12 -10
10 -10 -10 0 -15 5 -31 12 -38 7 -7 8 -12 2 -12 -5 0 -15 5 -22 12 -9 9 -12 9
-12 -2 0 -19 -13 -4 -17 20 -1 10 2 22 9 26 6 4 8 3 4 -4 -3 -6 -2 -14 4 -17
6 -4 9 -3 8 2 -1 4 2 19 6 32 6 18 10 21 17 10 5 -8 9 -18 9 -24z m39 8 c-12
-15 -12 -16 3 -11 11 5 15 2 13 -10 -1 -9 5 -20 14 -24 12 -6 12 -7 -4 -5 -11
2 -19 9 -17 16 2 9 -3 11 -13 7 -9 -3 -13 -2 -10 4 3 6 1 10 -4 10 -6 0 -3 8
7 18 21 23 30 19 11 -5z m-149 -4 c-13 -24 -25 -25 -27 -1 -1 11 6 18 18 19
16 2 17 -1 9 -18z m4110 7 c0 -8 -9 -24 -21 -37 -11 -13 -18 -18 -14 -11 8 15
-7 16 -23 0 -8 -8 -15 -8 -27 2 -26 21 -17 31 28 28 35 -3 42 0 39 15 -2 9 2
17 8 17 5 0 10 -6 10 -14z m-3985 -66 c-3 -6 -2 -10 4 -10 5 0 11 6 14 13 2 6
4 -3 4 -22 0 -34 0 -34 -18 -12 -12 15 -19 17 -23 9 -5 -11 -7 -11 -12 0 -4 8
-11 5 -24 -10 l-19 -23 2 23 c1 22 5 24 42 26 15 1 19 7 18 26 -2 22 -1 23 8
7 5 -9 7 -22 4 -27z m74 -19 c12 -21 5 -31 -21 -31 -11 0 -16 -5 -13 -10 4 -6
10 -8 14 -6 4 3 8 -1 8 -9 0 -18 -13 -20 -20 -2 -10 26 -8 32 12 37 15 4 18 9
11 20 -9 13 -11 13 -20 0 -5 -8 -10 -10 -10 -4 0 28 25 31 39 5z m3784 -45
c-3 -5 -12 2 -19 15 -20 36 -16 48 5 19 11 -13 17 -29 14 -34z m-3866 12 c-1
-21 -8 -23 -25 -6 -17 17 -15 24 7 24 13 0 19 -7 18 -18z m39 -23 c12 -18 22
-24 36 -19 17 5 18 4 6 -16 l-13 -21 -21 27 c-12 15 -27 24 -32 20 -6 -4 -10
2 -9 14 2 27 13 25 33 -5z m77 -2 c-7 -2 -19 -2 -25 0 -7 3 -2 5 12 5 14 0 19
-2 13 -5z m-97 -16 c8 3 14 -1 14 -10 0 -15 21 -28 52 -32 14 -1 15 1 7 12 -7
8 -8 13 -1 13 5 0 13 -7 16 -16 9 -23 8 -27 -8 -21 -7 3 -18 1 -24 -5 -8 -8
-13 -7 -17 4 -5 12 -12 10 -37 -13 -16 -16 -34 -29 -39 -29 -14 0 -10 22 8 42
9 10 11 18 6 18 -6 0 -10 12 -10 26 0 17 3 22 9 16 6 -6 17 -8 24 -5z m101
-19 c-3 -8 -6 -5 -6 6 -1 11 2 17 5 13 3 -3 4 -12 1 -19z m27 -34 c9 -24 8
-26 -13 -19 -11 3 -22 1 -26 -4 -4 -7 1 -8 11 -4 22 8 10 -13 -15 -26 -15 -9
-18 -6 -18 19 0 16 4 27 8 25 11 -8 40 6 33 16 -3 5 -1 9 4 9 6 0 13 -7 16
-16z m-64 -36 c0 -5 -5 -8 -10 -8 -6 0 -3 -11 6 -25 9 -14 12 -25 6 -25 -14 0
-35 38 -27 50 3 5 1 11 -5 15 -5 3 -10 10 -10 16 0 5 9 4 20 -3 11 -7 20 -16
20 -20z m70 -8 c0 -5 -4 -10 -10 -10 -5 0 -10 5 -10 10 0 6 5 10 10 10 6 0 10
-4 10 -10z m3522 3 c-6 -2 -9 -10 -6 -15 4 -7 2 -8 -5 -4 -13 9 -5 26 12 25 9
0 8 -2 -1 -6z m-3482 -49 c0 -24 -31 -23 -56 1 -13 13 -24 20 -24 15 0 -6 -4
-10 -10 -10 -15 0 -12 17 5 24 19 7 47 -3 40 -14 -9 -14 16 -23 28 -11 9 9 8
11 -5 6 -12 -5 -16 -2 -13 12 2 10 4 20 4 22 2 9 30 -34 31 -45z m3459 6 c0
-10 -3 -8 -9 5 -12 27 -12 43 0 25 5 -8 9 -22 9 -30z m-55 5 c-4 -8 -11 -15
-16 -15 -6 0 -5 6 2 15 7 8 14 15 16 15 2 0 1 -7 -2 -15z m36 -18 c0 -5 -4 -5
-10 -2 -5 3 -10 14 -10 23 0 15 2 15 10 2 5 -8 10 -19 10 -23z m-3513 -15 c0
-28 -4 -31 -52 -33 -11 -1 -14 -3 -7 -6 6 -3 10 -9 6 -14 -3 -5 -16 4 -30 20
-29 35 -29 36 -4 38 22 2 27 -13 8 -20 -7 -2 1 -4 19 -3 17 1 35 5 40 9 4 5
-1 5 -12 2 -17 -6 -17 -4 4 14 13 12 24 21 25 21 2 0 3 -13 3 -28z m3454 1
c13 -16 12 -17 -3 -5 -9 8 -23 10 -29 6 -8 -4 -9 -3 -5 4 10 17 21 15 37 -5z
m-3426 -4 c4 -6 13 -8 21 -5 16 6 19 -10 4 -19 -10 -6 -50 15 -50 27 0 12 18
10 25 -3z m61 -14 c0 -14 -6 -24 -11 -22 -6 1 -11 -2 -12 -6 -1 -4 -8 -19 -17
-32 -14 -21 -14 -24 0 -29 9 -4 12 -11 7 -18 -4 -7 -8 -26 -9 -42 -1 -16 1
-23 5 -17 5 8 13 5 26 -9 10 -11 13 -20 7 -20 -6 0 -13 4 -17 10 -3 5 -12 7
-20 3 -9 -3 -16 1 -16 8 -2 25 -1 54 2 69 2 8 -3 15 -11 15 -8 0 -19 4 -25 8
-5 4 -19 14 -30 22 -20 15 -20 15 -1 30 10 8 22 12 27 10 4 -3 11 -1 14 5 5 8
11 7 21 -1 16 -13 44 4 44 27 0 8 4 14 9 14 5 0 8 -11 7 -25z m42 -56 c21 -40
27 -61 20 -70 -7 -10 -8 -9 -3 6 5 15 3 17 -6 8 -6 -6 -8 -17 -4 -23 5 -8 10
-9 18 -1 7 7 18 -4 34 -37 14 -26 26 -53 27 -60 1 -8 9 -17 16 -22 8 -5 12
-11 9 -15 -9 -8 -54 36 -51 50 1 8 -2 16 -8 20 -6 4 -7 -1 -3 -11 4 -10 2 -15
-3 -11 -6 3 -11 -4 -11 -16 -2 -14 1 -17 6 -9 6 10 10 10 20 -1 9 -12 7 -14
-14 -14 -23 0 -30 8 -26 30 1 5 -3 5 -9 2 -6 -4 -9 -13 -7 -19 4 -9 -7 -13
-34 -13 -21 0 -36 4 -33 9 3 5 0 16 -8 25 -11 14 -11 15 7 7 34 -16 89 -4 99
21 6 17 -2 45 -13 45 -4 0 -16 6 -26 14 -17 12 -17 16 -5 31 12 14 12 18 -1
26 -8 5 -10 9 -6 9 4 0 2 10 -5 23 -12 22 -23 65 -14 56 3 -2 18 -30 34 -60z
m3262 51 c0 -5 -5 -10 -11 -10 -5 0 -7 5 -4 10 3 6 8 10 11 10 2 0 4 -4 4 -10z
m30 -20 c0 -5 -2 -10 -4 -10 -3 0 -8 5 -11 10 -3 6 -1 10 4 10 6 0 11 -4 11
-10z m-3320 -30 c0 -19 2 -25 11 -36 6 -7 4 -16 -7 -25 -14 -11 -15 -10 -12 7
2 13 -3 19 -17 19 -14 0 -19 6 -17 20 2 11 4 25 4 32 2 14 38 -2 38 -17z
m3243 15 c-3 -9 -8 -14 -10 -11 -3 3 -2 9 2 15 9 16 15 13 8 -4z m-19 -64 c-2
-3 -12 3 -22 13 -16 17 -16 18 5 5 12 -7 20 -15 17 -18z m-37 -7 c-9 -9 -28 6
-21 18 4 6 10 6 17 -1 6 -6 8 -13 4 -17z m-3210 -2 c-12 -13 -13 -21 -6 -32 9
-12 10 -12 5 3 -6 19 -5 20 18 11 13 -5 14 -9 5 -20 -16 -19 -26 -17 -39 7
-12 21 1 49 23 49 5 0 3 -8 -6 -18z m3213 -14 c12 3 12 2 3 -8 -9 -10 -15 -10
-26 -2 -8 7 -16 10 -19 7 -2 -3 -5 2 -5 10 0 13 3 13 16 1 9 -7 23 -11 31 -8z
m-3160 -58 c0 -5 -4 -10 -10 -10 -5 0 -10 5 -10 10 0 6 5 10 10 10 6 0 10 -4
10 -10z m3004 -66 c9 -3 16 -10 16 -14 0 -12 -28 -20 -45 -14 -12 5 -13 10 -4
20 13 16 12 16 33 8z m-2982 -59 c16 -21 7 -27 -16 -11 -18 11 -26 12 -29 3
-2 -6 -8 -8 -13 -4 -10 10 15 27 36 24 8 -1 18 -6 22 -12z m91 4 c15 0 38 -34
41 -61 1 -4 7 -13 14 -19 16 -17 15 -54 -2 -68 -10 -8 -20 -6 -40 10 -15 12
-25 24 -22 27 3 3 15 -3 26 -13 21 -19 32 -15 36 10 1 9 -2 12 -9 8 -6 -4 -8
0 -4 10 4 12 2 14 -10 10 -10 -4 -14 -2 -10 4 5 7 -2 10 -18 8 -16 -1 -24 2
-22 9 2 6 14 10 26 9 11 -2 21 2 21 8 0 5 -4 8 -9 4 -5 -3 -12 -1 -16 5 -3 5
-1 10 5 10 6 0 8 5 4 11 -4 8 -11 4 -18 -10 -9 -17 -14 -19 -24 -9 -17 17 -15
28 6 22 14 -5 15 -4 2 5 -9 6 -19 6 -24 1 -10 -10 -38 -1 -31 10 3 5 17 6 33
4 15 -3 35 -5 45 -5z m2772 -10 c-4 -5 0 -18 8 -27 14 -15 13 -19 -9 -35 -13
-10 -24 -14 -24 -8 0 5 6 11 13 14 6 3 -5 4 -26 2 -21 -1 -40 2 -43 6 -3 5 2
9 11 9 8 0 18 7 21 15 4 8 11 12 16 9 6 -4 6 -9 -2 -14 -7 -5 -2 -7 14 -7 23
0 24 1 10 12 -17 12 -12 35 7 35 6 0 7 -5 4 -11z m-2800 -54 c0 -10 8 -19 18
-21 21 -3 60 -35 52 -42 -3 -3 -14 3 -24 12 -11 10 -25 15 -30 11 -6 -3 -14 1
-17 9 -5 14 -8 14 -30 -1 -13 -8 -24 -11 -24 -5 0 11 -39 28 -54 23 -5 -1 -2
8 6 21 9 13 23 23 31 23 9 0 19 4 23 8 11 11 49 -18 49 -38z m2737 -26 c-14
-11 -18 -19 -10 -21 7 -3 8 -10 3 -17 -5 -10 -12 -4 -21 19 -8 18 -14 34 -14
35 0 2 14 3 32 3 l31 -1 -21 -18z m-2725 -31 c39 -49 51 -53 77 -29 20 19 24
20 30 6 3 -9 2 -14 -2 -11 -11 6 -10 -70 1 -80 4 -5 5 0 1 10 -5 14 -4 17 5
11 10 -6 11 -3 2 13 -14 26 -14 32 -1 32 6 0 10 -9 10 -21 0 -12 4 -17 11 -13
8 5 8 1 0 -14 -6 -11 -8 -29 -4 -39 7 -17 6 -17 -19 -1 -20 14 -27 14 -31 4
-6 -15 -43 -14 -58 1 -6 6 -19 9 -28 6 -12 -3 -12 -2 2 7 12 8 22 8 30 1 15
-12 50 -8 54 6 2 6 -1 14 -6 18 -6 3 -11 12 -11 18 0 8 3 8 9 -2 6 -9 9 -5 9
13 0 24 -2 25 -13 9 -13 -17 -15 -17 -39 6 -14 14 -26 20 -26 15 0 -5 -10 -10
-22 -11 l-23 -2 21 18 22 18 -22 13 c-19 12 -20 12 -7 -3 16 -20 2 -23 -19 -4
-12 10 -12 9 -2 -4 7 -9 11 -23 10 -30 -2 -9 7 -14 27 -14 33 0 55 -11 55 -27
0 -7 -4 -7 -12 -1 -17 12 -60 14 -53 2 4 -5 2 -9 -2 -9 -12 0 -35 39 -28 50 3
5 -2 13 -11 18 -15 8 -14 11 7 26 30 21 34 20 56 -6z m2629 -58 c0 -12 -5 -19
-13 -16 -7 3 -15 1 -18 -5 -4 -5 -11 -6 -17 -3 -7 4 -7 0 0 -13 8 -15 7 -19
-7 -20 -12 -1 -17 5 -16 20 1 14 8 22 19 22 10 0 22 8 27 18 13 23 25 22 25
-3z m-2441 -132 c22 -46 45 -89 52 -96 13 -13 7 -42 -8 -42 -14 0 -11 20 4 20
6 0 4 5 -5 11 -10 5 -18 16 -18 23 0 8 -12 21 -26 31 -14 9 -23 19 -20 22 3 3
13 0 22 -8 16 -13 16 -12 4 8 -13 20 -15 20 -37 6 -14 -9 -23 -11 -23 -5 0 6
9 16 20 22 11 6 20 16 20 23 0 8 -4 7 -10 -3 -5 -8 -12 -11 -16 -7 -4 3 -1 15
7 24 13 16 12 17 -4 4 -9 -7 -16 -20 -15 -29 2 -8 -2 -17 -9 -19 -8 -3 -10 4
-7 22 3 16 1 24 -5 21 -15 -10 -8 -49 11 -66 22 -18 33 -64 15 -57 -7 2 -11
11 -9 19 1 9 -4 21 -12 27 -26 22 -29 -19 -2 -44 20 -18 26 -20 41 -9 10 8 22
11 28 7 6 -3 7 -1 3 5 -3 6 -1 14 5 17 7 5 9 -1 7 -16 -2 -16 -10 -24 -23 -24
-11 0 -19 -6 -17 -12 1 -7 -3 -13 -9 -13 -6 0 -1 -9 12 -19 l24 -20 -22 2
c-22 1 -38 21 -28 37 7 11 -22 33 -35 25 -6 -3 -8 -11 -5 -16 4 -5 2 -9 -4 -9
-18 0 -23 20 -6 26 13 5 12 11 -10 40 -14 19 -21 34 -15 34 6 0 3 11 -6 25 -9
14 -20 22 -25 19 -5 -3 -9 -1 -9 4 0 14 29 36 37 29 3 -4 12 -2 19 4 9 7 19 7
32 0 15 -8 23 -7 32 4 9 11 9 15 1 15 -6 0 -11 5 -11 10 0 27 19 2 55 -72z
m2310 54 c-2 -2 -11 -5 -21 -6 -20 -3 -27 -32 -13 -57 5 -11 5 -20 0 -24 -9
-5 -23 25 -26 57 -1 9 9 22 22 29 13 7 23 17 23 23 0 6 4 4 10 -4 5 -8 7 -16
5 -18z m5 -16 c0 -2 -9 -11 -19 -21 -19 -16 -20 -16 -18 2 0 11 9 20 19 20 10
1 18 0 18 -1z m-74 -38 c-1 -16 -8 -23 -23 -24 -14 -1 -23 5 -23 13 0 8 4 12
9 9 5 -3 11 1 15 9 8 23 23 18 22 -7z m-33 -31 c4 3 7 1 7 -5 0 -6 -5 -14 -11
-17 -6 -4 -8 -13 -5 -21 4 -11 -1 -13 -19 -10 -25 5 -56 -19 -34 -26 7 -2 5
-9 -7 -18 -16 -14 -17 -13 -11 3 4 9 2 17 -4 17 -7 0 -9 -11 -7 -25 6 -30 -3
-37 -48 -41 -24 -2 -34 2 -34 12 0 8 0 17 0 22 0 4 3 7 8 7 4 0 20 13 36 28
30 28 53 36 40 15 -5 -8 -1 -8 12 2 29 22 30 24 12 17 -27 -10 -21 8 7 23 14
7 25 18 25 23 0 5 6 4 13 -2 8 -6 17 -8 20 -4z m-2223 -22 c12 -15 6 -35 -11
-35 -6 0 -7 5 -4 10 4 6 1 17 -5 25 -7 9 -8 15 -2 15 5 0 15 -7 22 -15z m-50
-15 c0 -5 -4 -10 -10 -10 -5 0 -10 5 -10 10 0 6 5 10 10 10 6 0 10 -4 10 -10z
m96 -57 c-1 -13 5 -17 22 -16 19 2 20 0 11 -15 -6 -10 -20 -19 -31 -19 -15 -2
-17 1 -9 11 13 16 -9 29 -32 20 -8 -3 -14 2 -14 11 0 9 6 14 13 11 8 -3 16 -1
19 4 10 16 23 11 21 -7z m-16 -33 c0 -5 -4 -10 -10 -10 -5 0 -10 5 -10 10 0 6
5 10 10 10 6 0 10 -4 10 -10z m83 -27 c8 -16 12 -34 9 -42 -3 -8 0 -11 7 -7 6
4 11 1 11 -8 0 -9 5 -16 11 -16 5 0 7 -4 4 -10 -3 -5 -1 -10 5 -10 6 0 8 -5 4
-11 -4 -8 -12 -2 -21 15 -7 14 -16 26 -19 26 -3 0 -2 -5 1 -10 4 -6 1 -17 -5
-25 -15 -18 -34 -20 -23 -2 4 6 9 28 9 48 l2 35 -77 0 c-42 -1 -82 -5 -88 -9
-7 -5 -13 -4 -13 1 0 21 28 29 97 28 57 -1 70 1 61 11 -7 9 -7 13 1 13 6 0 17
-12 24 -27z m1912 11 c-20 -16 -20 -16 1 -10 11 3 28 0 40 -9 16 -12 16 -14 2
-9 -10 3 -19 1 -19 -5 -1 -6 -2 -15 -3 -21 0 -5 -5 -10 -9 -9 -5 1 -22 -12
-38 -27 -16 -15 -29 -24 -29 -20 0 5 -15 -3 -34 -18 -33 -25 -50 -23 -43 6 2
7 2 10 0 5 -3 -4 -10 -4 -15 -1 -7 4 -8 2 -4 -4 4 -7 4 -18 -1 -24 -4 -7 -8
-15 -8 -18 -1 -3 -8 -19 -18 -37 -13 -25 -22 -31 -44 -29 -15 2 -29 8 -30 13
-5 13 29 13 45 0 7 -6 12 -6 11 -1 -5 18 13 54 23 48 7 -5 8 -2 3 6 -4 7 -2
16 6 21 10 6 10 9 2 9 -7 0 -21 -16 -30 -35 -17 -33 -19 -34 -31 -15 -12 20
-6 25 21 21 4 0 7 5 7 12 0 6 18 24 39 39 21 15 54 42 74 59 19 17 39 31 44
31 4 1 14 9 21 19 7 11 19 19 25 19 7 0 3 -8 -8 -16z m-2033 -47 c-8 -9 -8
-17 0 -27 8 -13 9 -13 5 1 -4 12 2 16 22 16 18 0 27 -6 27 -17 0 -23 -54 -21
-67 3 -11 19 -4 37 13 37 7 0 7 -4 0 -13z m38 3 c0 -5 -4 -10 -10 -10 -5 0
-10 5 -10 10 0 6 5 10 10 10 6 0 10 -4 10 -10z m61 1 c6 -48 3 -58 -23 -84
-25 -25 -31 -27 -46 -16 -15 13 -16 12 -4 -3 9 -11 10 -17 2 -20 -7 -2 -1 -12
12 -23 16 -14 19 -15 9 -3 -7 9 -10 22 -6 28 9 15 25 12 19 -4 -3 -8 0 -17 6
-21 7 -4 9 2 6 20 -3 17 -1 25 7 22 7 -2 12 -12 12 -23 0 -10 6 -19 14 -19 23
0 24 23 2 35 -12 6 -21 15 -21 21 0 6 5 7 11 4 5 -4 18 0 28 9 17 15 19 15 25
1 3 -9 10 -14 15 -10 5 3 12 1 16 -5 3 -5 3 -10 -2 -11 -4 0 -16 -2 -26 -4
-12 -2 -17 1 -13 10 3 9 0 12 -9 9 -12 -5 -12 -9 1 -29 14 -21 13 -24 -8 -39
-14 -10 -26 -12 -32 -6 -6 6 -16 5 -29 -1 -16 -9 -24 -7 -41 12 -22 25 -31 59
-15 59 5 0 9 9 9 20 0 11 5 20 11 20 6 0 9 -7 6 -15 -4 -8 -1 -17 4 -21 17
-10 44 24 45 58 1 25 0 28 -8 15 -5 -10 -6 -22 -3 -28 8 -11 -12 -39 -28 -39
-5 0 -4 8 4 18 15 18 18 40 6 58 -4 7 2 12 18 12 14 0 25 -3 26 -7z m99 -126
c0 -14 -42 -15 -47 0 -1 6 8 11 22 11 14 1 25 -4 25 -11z m-80 -5 c0 -5 -4
-10 -10 -10 -5 0 -10 5 -10 10 0 6 5 10 10 10 6 0 10 -4 10 -10z m50 -40 c0
-3 -9 -6 -20 -6 -23 0 -25 7 -8 24 9 9 14 9 20 -1 4 -6 8 -14 8 -17z m46 23
c-3 -3 4 -17 14 -31 14 -17 17 -29 10 -37 -5 -6 -7 -15 -3 -18 3 -4 1 -7 -5
-7 -20 0 -23 19 -5 29 10 6 13 11 6 11 -6 0 -14 9 -18 20 -3 11 -9 19 -13 19
-4 -1 -13 -1 -20 0 -21 2 -6 16 18 18 12 1 20 -1 16 -4z m-63 -38 c10 -1 20 2
23 6 2 5 11 6 19 3 29 -11 5 -20 -47 -18 -66 2 -66 2 -48 13 8 6 19 7 24 3 6
-3 19 -7 29 -7z m56 -31 c-11 -14 8 -31 33 -31 14 0 15 3 7 14 -8 9 -8 13 -1
13 6 0 16 -16 23 -35 7 -19 17 -35 23 -35 5 0 6 -3 3 -6 -4 -4 2 -19 13 -33
10 -15 16 -32 12 -37 -9 -13 -44 -12 -49 2 -2 7 7 10 22 8 24 -2 27 9 4 12 -5
1 -13 2 -19 3 -5 0 -10 6 -10 12 0 6 7 8 18 4 13 -5 14 -3 5 6 -22 22 -31 -2
-29 -81 2 -57 -1 -77 -9 -70 -6 5 -11 39 -10 80 0 57 4 74 18 85 12 8 14 15 7
20 -5 3 -8 10 -5 15 3 4 -7 7 -21 5 -14 -1 -28 3 -31 11 -4 11 -9 11 -27 -1
-13 -8 -26 -12 -31 -8 -4 5 -5 2 -1 -5 4 -7 15 -11 23 -10 9 2 18 -3 21 -11 2
-8 0 -11 -5 -8 -5 3 -15 2 -23 -3 -13 -8 -11 -12 8 -25 12 -9 22 -21 22 -27 0
-7 -5 -6 -15 2 -8 6 -18 9 -23 6 -5 -3 -10 11 -11 32 0 20 -1 45 -2 54 0 22
-16 33 -49 34 -47 3 -51 4 -46 12 2 4 40 7 85 8 59 0 77 -3 70 -12z m1511 -28
c-5 -5 -6 -14 -4 -21 6 -15 -21 -38 -48 -42 -18 -3 -19 -1 -8 12 11 13 15 13
21 3 5 -7 9 -8 9 -2 0 5 -7 19 -15 30 -15 19 -15 19 -9 -1 5 -17 4 -18 -6 -5
-10 13 -11 12 -6 -4 5 -14 2 -17 -9 -12 -10 3 -13 2 -10 -5 7 -11 -12 -39 -26
-39 -5 0 -5 8 -2 17 6 15 5 16 -9 3 -13 -13 -13 -16 6 -31 20 -16 20 -16 -7
-16 -15 0 -25 2 -23 5 3 3 1 11 -5 19 -6 7 -8 13 -3 13 5 0 29 18 53 40 24 22
47 37 52 34 5 -3 9 0 9 5 0 6 5 11 11 11 5 0 7 -4 4 -10 -3 -5 -2 -18 4 -27 7
-13 9 -6 5 27 -5 42 -4 44 10 25 8 -11 11 -24 6 -29z m-1505 -26 c3 -5 12 -7
19 -4 23 9 29 -16 10 -37 -12 -13 -20 -16 -25 -8 -4 7 -9 8 -13 1 -3 -6 2 -13
12 -16 14 -5 18 -17 18 -56 0 -28 -4 -50 -10 -50 -5 0 1 -11 13 -24 13 -14 20
-29 16 -35 -9 -15 -25 -14 -19 2 5 13 -26 52 -48 60 -8 2 -9 8 -4 13 5 5 11 4
13 -4 4 -10 8 -8 18 5 10 13 10 20 2 26 -9 6 -9 10 1 14 9 4 6 14 -13 38 -26
35 -32 51 -16 40 16 -9 24 15 11 30 -8 10 -9 15 -2 15 6 0 13 -4 17 -10z m643
-33 c2 -9 -1 -17 -7 -17 -6 0 -8 6 -5 14 8 22 -29 14 -43 -9 -14 -24 -17 -12
-4 14 12 22 55 20 59 -2z m-745 -2 c-3 -9 -8 -14 -10 -11 -3 3 -2 9 2 15 9 16
15 13 8 -4z m667 -28 c0 -5 -4 -5 -10 -2 -5 3 -10 14 -10 23 0 15 2 15 10 2 5
-8 10 -19 10 -23z m84 2 c26 22 18 6 -14 -29 -17 -18 -28 -35 -25 -39 3 -3 10
1 15 9 7 10 10 11 10 3 0 -7 5 -13 11 -13 5 0 7 5 4 10 -3 6 -1 10 4 10 6 0
11 -4 11 -10 0 -5 5 -10 11 -10 8 0 7 6 -2 17 -12 15 -12 16 3 10 12 -4 15 -2
12 8 -5 12 -10 12 -30 -2 -13 -8 -24 -11 -24 -5 0 5 11 17 24 25 22 15 24 14
36 -8 7 -13 9 -28 6 -34 -7 -10 7 -16 28 -12 26 5 44 -68 18 -77 -6 -2 -9 8
-6 27 4 24 1 30 -13 30 -64 3 -190 9 -197 10 -6 0 -5 6 2 13 15 15 15 29 0 26
-15 -4 -23 31 -10 44 6 6 8 0 5 -17 -4 -18 -2 -25 8 -23 8 2 13 -4 13 -13 -2
-26 38 -20 60 8 13 18 15 28 7 36 -6 6 -11 15 -11 21 0 5 6 1 14 -9 12 -16 16
-17 30 -6z m703 -30 c1 -15 -1 -18 -10 -10 -9 7 -16 4 -25 -10 -15 -23 -35
-25 -30 -3 2 8 6 15 11 14 12 -1 35 24 30 32 -2 4 2 5 9 3 8 -3 14 -15 15 -26z
m-877 -9 c-9 -16 -15 -19 -24 -10 -8 5 -21 7 -31 4 -13 -5 -14 -9 -3 -15 15
-10 18 -41 4 -51 -6 -4 -17 -3 -25 2 -9 4 -28 7 -43 5 -16 -2 -30 0 -33 4 -5
9 117 74 140 74 8 0 15 5 15 10 0 6 3 8 6 5 3 -4 0 -16 -6 -28z m130 22 c0 -5
-7 -17 -15 -28 -13 -17 -17 -17 -14 2 0 4 -5 11 -13 16 -9 6 -5 7 11 3 16 -5
21 -4 17 4 -4 6 -2 11 3 11 6 0 11 -4 11 -8z m-482 -29 c-4 -13 45 -93 53 -87
4 2 11 -1 15 -7 4 -7 3 -9 -4 -5 -6 3 -13 2 -17 -4 -9 -15 -25 -12 -19 4 3 8
-3 19 -15 26 -12 6 -21 15 -21 21 0 6 4 7 10 4 6 -3 7 1 3 10 -3 9 -9 13 -12
8 -6 -7 -41 -14 -41 -8 0 2 3 11 6 19 5 13 9 14 21 5 8 -7 13 -8 12 -3 -2 13
0 24 6 24 3 0 4 -3 3 -7z m-53 -13 c3 -5 1 -10 -4 -10 -6 0 -11 5 -11 10 0 6
2 10 4 10 3 0 8 -4 11 -10z m21 -33 c8 3 14 -1 14 -10 0 -9 9 -19 20 -22 21
-7 28 -25 10 -25 -5 0 -10 4 -10 10 0 5 -11 -2 -25 -16 -14 -14 -30 -22 -37
-18 -7 4 -8 3 -4 -4 4 -6 14 -8 23 -5 11 4 14 3 9 -6 -4 -6 -2 -18 4 -26 15
-18 -1 -20 -20 -2 -11 9 -11 8 0 -7 13 -17 13 -19 0 -14 -8 3 -15 14 -15 25 0
12 -3 25 -8 29 -4 4 0 18 8 31 9 13 11 23 6 23 -4 0 -8 12 -8 26 0 17 3 22 9
16 6 -6 17 -8 24 -5z m574 -10 c0 -5 6 -4 14 2 10 9 16 9 21 1 4 -6 13 -9 21
-6 10 4 13 -1 10 -17 -2 -12 5 -33 16 -46 10 -13 17 -26 15 -28 -7 -6 -37 9
-33 16 3 4 0 13 -5 21 -7 11 -8 7 -5 -14 5 -30 -7 -56 -26 -56 -7 0 -7 5 -1
13 12 16 14 59 2 52 -5 -4 -9 -2 -9 4 0 5 9 13 21 16 l21 7 -21 15 c-20 13
-23 13 -41 -9 -11 -13 -17 -29 -15 -35 6 -16 -11 -17 -21 -1 -4 6 2 19 13 28
20 16 20 17 3 28 -14 9 -20 8 -24 -1 -3 -9 -7 -9 -14 2 -6 8 -12 9 -16 3 -8
-13 19 -23 42 -15 15 6 15 4 -2 -15 l-19 -22 -15 21 c-8 11 -20 18 -28 15 -15
-6 -16 -4 -9 16 6 16 105 20 105 5z m595 -37 c3 -5 1 -10 -4 -10 -6 0 -11 5
-11 10 0 6 2 10 4 10 3 0 8 -4 11 -10z m-471 -6 c9 -3 16 -16 16 -28 0 -17 2
-18 10 -6 7 11 10 11 10 2 0 -7 15 -28 34 -47 19 -18 31 -36 28 -39 -3 -3 0
-6 7 -6 7 0 11 -7 8 -15 -4 -8 -2 -17 3 -20 16 -10 11 -21 -10 -21 -19 0 -24
24 -8 36 3 3 0 14 -8 24 -8 12 -14 15 -14 7 0 -11 -3 -11 -15 -1 -9 8 -13 21
-9 32 5 15 2 15 -19 -5 -25 -26 -66 -29 -92 -7 -10 8 -15 9 -15 2 0 -6 -9 -16
-20 -22 -32 -17 -23 3 16 33 29 24 35 26 32 11 -4 -25 59 -29 72 -5 11 22 -23
26 -41 5 -6 -8 -16 -14 -22 -14 -5 0 -3 8 6 18 11 12 13 22 6 35 -6 9 -7 22
-4 27 7 12 8 12 29 4z m-633 -35 c16 -17 27 -25 24 -17 -4 9 1 14 14 14 12 0
19 -7 18 -16 -1 -10 -9 -16 -21 -15 -12 1 -31 -5 -43 -13 -13 -8 -23 -12 -23
-8 0 3 -9 -3 -20 -14 -11 -11 -26 -20 -32 -20 -7 1 -2 10 12 22 14 11 23 26
21 32 -8 26 -7 41 3 53 15 17 14 17 47 -18z m59 20 c0 -5 -3 -9 -7 -10 -5 0
-16 -2 -25 -4 -17 -3 -24 6 -13 16 8 9 45 8 45 -2z m926 -35 c-25 -18 -31 -12
-16 16 9 17 15 19 23 10 9 -9 7 -15 -7 -26z m-8 -18 c15 5 15 4 -1 -6 -20 -13
-52 4 -41 22 4 7 10 4 16 -5 5 -9 16 -14 26 -11z m-1088 -5 c0 -5 -7 -11 -14
-14 -10 -4 -13 -1 -9 9 6 15 23 19 23 5z m760 -1 c0 -5 -4 -10 -10 -10 -5 0
-10 5 -10 10 0 6 5 10 10 10 6 0 10 -4 10 -10z m40 -45 c7 -8 16 -12 21 -10 4
3 7 -4 6 -15 -1 -10 -7 -22 -14 -24 -15 -6 -45 33 -36 48 3 6 0 6 -7 -1 -11
-10 -11 -15 0 -28 8 -10 9 -15 1 -15 -6 0 -16 9 -23 20 -15 24 -24 25 -31 6
-4 -10 -1 -13 7 -10 7 3 19 -2 26 -11 12 -15 0 -22 -14 -8 -4 4 -15 8 -23 8
-10 0 -17 9 -18 22 -1 19 3 22 26 19 15 -2 33 1 41 5 18 12 24 11 38 -6z m93
-38 c-6 -10 30 -5 38 6 3 4 6 -6 6 -23 0 -16 -4 -30 -9 -30 -5 0 -7 4 -3 9 10
17 -16 23 -33 9 -18 -16 -78 -18 -99 -5 -7 5 -13 4 -13 0 0 -5 -10 -9 -22 -10
l-23 -2 24 20 c17 14 26 17 32 8 4 -6 11 -9 17 -5 6 3 13 2 16 -2 6 -10 36 -9
54 2 10 6 9 11 -5 21 -17 13 -17 14 4 12 12 0 19 -5 16 -10z m-33 -117 c0 -5
-5 -10 -11 -10 -5 0 -7 5 -4 10 3 6 8 10 11 10 2 0 4 -4 4 -10z"/>
<path d="M1333 3029 c-1 -10 4 -22 10 -25 7 -4 9 -4 5 1 -4 4 -3 14 2 20 7 9
7 14 -3 18 -8 3 -13 -3 -14 -14z"/>
<path d="M1647 2613 c-4 -3 -7 -11 -7 -17 0 -6 5 -5 12 2 6 6 9 14 7 17 -3 3
-9 2 -12 -2z"/>
<path d="M1880 2270 c0 -5 5 -10 11 -10 5 0 7 5 4 10 -3 6 -8 10 -11 10 -2 0
-4 -4 -4 -10z"/>
<path d="M2020 1870 c-9 -6 -10 -10 -3 -10 6 0 15 5 18 10 8 12 4 12 -15 0z"/>
<path d="M2027 1840 c-9 -11 -13 -20 -7 -20 5 0 14 9 20 20 6 11 9 20 8 20 -2
0 -11 -9 -21 -20z"/>
<path d="M2114 1669 c-3 -6 -2 -15 3 -20 5 -5 9 -1 10 11 2 22 -2 25 -13 9z"/>
<path d="M2149 1678 c-1 -1 -3 -13 -4 -25 -2 -19 1 -21 17 -12 20 11 20 30 0
37 -7 2 -13 2 -13 0z m21 -18 c0 -5 -4 -10 -10 -10 -5 0 -10 5 -10 10 0 6 5
10 10 10 6 0 10 -4 10 -10z"/>
<path d="M2230 1460 c0 -5 5 -10 10 -10 6 0 10 5 10 10 0 6 -4 10 -10 10 -5 0
-10 -4 -10 -10z"/>
<path d="M2206 1642 c-2 -4 4 -9 15 -9 11 -1 17 2 14 8 -7 11 -22 12 -29 1z"/>
<path d="M2274 1349 c-3 -6 -2 -15 3 -20 5 -5 9 -1 10 11 2 22 -2 25 -13 9z"/>
<path d="M2309 1358 c-1 -1 -3 -13 -4 -25 -2 -19 1 -21 17 -12 20 11 20 30 0
37 -7 2 -13 2 -13 0z m21 -18 c0 -5 -4 -10 -10 -10 -5 0 -10 5 -10 10 0 6 5
10 10 10 6 0 10 -4 10 -10z"/>
<path d="M2450 1115 c-10 -12 -15 -13 -20 -4 -5 7 -10 8 -14 1 -3 -6 2 -13 13
-17 15 -4 19 -13 16 -38 -3 -23 -2 -28 5 -16 5 9 7 27 5 39 -3 13 0 29 6 37 7
7 9 13 6 13 -2 0 -10 -7 -17 -15z"/>
<path d="M4730 1041 c0 -7 -4 -9 -10 -6 -6 4 -7 -1 -3 -11 6 -15 7 -15 15 1 6
9 7 19 4 22 -3 4 -6 1 -6 -6z"/>
<path d="M4642 983 c-10 -4 -10 -8 0 -21 11 -14 10 -15 -7 -8 -11 4 -16 4 -12
0 4 -4 0 -12 -8 -18 -13 -9 -11 -11 11 -13 17 0 22 2 14 7 -10 6 -10 8 1 12 7
2 13 14 14 26 1 12 1 22 1 21 -1 0 -7 -3 -14 -6z"/>
<path d="M4508 870 c-9 -8 -24 -21 -33 -29 -12 -9 -13 -17 -6 -24 7 -7 15 -6
26 3 12 10 15 10 15 -1 0 -7 12 -1 28 14 16 15 31 25 34 21 4 -3 5 2 4 12 -2
9 -10 18 -19 20 -10 1 -15 -2 -11 -7 3 -5 1 -9 -5 -9 -5 0 -11 4 -13 8 -1 4
-11 1 -20 -8z m42 -15 c-13 -14 -30 -23 -37 -21 -7 3 -15 1 -18 -4 -4 -6 -11
-10 -17 -10 -6 0 2 11 18 25 17 14 31 20 35 14 3 -6 11 -4 19 6 7 8 15 15 18
15 3 0 -5 -11 -18 -25z"/>
<path d="M4443 792 c-1 -22 0 -24 9 -8 6 10 6 22 2 26 -5 5 -10 -3 -11 -18z"/>
<path d="M2682 634 c9 -9 21 -13 27 -10 14 9 14 26 0 26 -5 0 -7 -4 -4 -10 3
-5 1 -10 -4 -10 -6 0 -11 5 -11 10 0 6 -5 10 -12 10 -8 0 -7 -6 4 -16z"/>
<path d="M2757 583 c-4 -3 -7 -11 -7 -17 0 -6 5 -5 12 2 6 6 9 14 7 17 -3 3
-9 2 -12 -2z"/>
<path d="M3146 468 c5 -7 2 -9 -9 -5 -11 4 -14 2 -10 -9 4 -12 8 -12 22 -2 9
7 17 13 19 14 2 1 -4 4 -13 8 -11 4 -14 2 -9 -6z"/>
<path d="M3095 450 c3 -5 8 -10 11 -10 2 0 4 5 4 10 0 6 -5 10 -11 10 -5 0 -7
-4 -4 -10z"/>
<path d="M2820 430 c-9 -6 -10 -10 -3 -10 6 0 15 5 18 10 8 12 4 12 -15 0z"/>
<path d="M2827 400 c-9 -11 -13 -20 -7 -20 5 0 14 9 20 20 6 11 9 20 8 20 -2
0 -11 -9 -21 -20z"/>
<path d="M3525 360 c-3 -5 -1 -10 4 -10 6 0 11 5 11 10 0 6 -2 10 -4 10 -3 0
-8 -4 -11 -10z"/>
<path d="M2864 347 c0 -12 7 -22 15 -22 22 0 24 23 3 34 -16 9 -19 7 -18 -12z
m26 -7 c0 -5 -4 -10 -10 -10 -5 0 -10 5 -10 10 0 6 5 10 10 10 6 0 10 -4 10
-10z"/>
<path d="M3580 261 c0 -6 4 -13 10 -16 6 -3 7 1 4 9 -7 18 -14 21 -14 7z"/>
<path d="M986 3438 c5 -8 1 -9 -12 -4 -14 5 -16 4 -7 -5 6 -6 16 -8 22 -5 14
9 14 26 0 26 -5 0 -7 -5 -3 -12z"/>
<path d="M1265 3147 c4 -35 5 -37 13 -37 5 0 9 7 9 15 0 8 -5 11 -10 8 -6 -4
-8 0 -4 10 3 9 2 19 -2 21 -5 3 -7 -5 -6 -17z"/>
<path d="M1270 3090 c0 -5 5 -10 10 -10 6 0 10 5 10 10 0 6 -4 10 -10 10 -5 0
-10 -4 -10 -10z"/>
<path d="M1270 3060 c0 -5 5 -10 10 -10 6 0 10 5 10 10 0 6 -4 10 -10 10 -5 0
-10 -4 -10 -10z"/>
<path d="M1270 3030 c0 -5 5 -10 10 -10 6 0 10 5 10 10 0 6 -4 10 -10 10 -5 0
-10 -4 -10 -10z"/>
<path d="M1430 2790 c0 -5 5 -10 10 -10 6 0 10 5 10 10 0 6 -4 10 -10 10 -5 0
-10 -4 -10 -10z"/>
<path d="M1787 2180 c9 -16 21 -30 26 -30 4 0 5 5 2 10 -3 6 -1 10 4 10 6 0
11 -4 11 -10 0 -5 5 -10 11 -10 8 0 7 5 -1 15 -7 9 -20 13 -28 10 -8 -3 -16 3
-19 15 -3 11 -10 20 -15 20 -5 0 -1 -13 9 -30z"/>
<path d="M5885 1990 c-3 -5 -2 -18 4 -27 7 -14 9 -12 8 10 -2 30 -3 31 -12 17z"/>
<path d="M5720 1780 c-6 -11 -8 -20 -6 -20 3 0 10 9 16 20 6 11 8 20 6 20 -3
0 -10 -9 -16 -20z"/>
<path d="M5362 1503 c-13 -14 -22 -27 -20 -29 4 -4 58 44 58 51 0 11 -17 1
-38 -22z"/>
<path d="M2150 1462 c0 -5 7 -9 15 -9 8 0 15 4 15 9 0 4 -7 8 -15 8 -8 0 -15
-4 -15 -8z"/>
<path d="M2202 1370 c7 -10 14 -18 15 -16 6 6 -9 36 -18 36 -5 0 -4 -9 3 -20z"/>
<path d="M4886 1173 c-6 -14 -5 -15 5 -6 7 7 10 15 7 18 -3 3 -9 -2 -12 -12z"/>
<path d="M2320 1136 c0 -2 7 -7 16 -10 8 -3 12 -2 9 4 -6 10 -25 14 -25 6z"/>
<path d="M2380 1039 c0 -5 5 -7 10 -4 6 3 10 8 10 11 0 2 -4 4 -10 4 -5 0 -10
-5 -10 -11z"/>
<path d="M5054 996 c1 -8 5 -18 8 -22 4 -3 5 1 4 10 -1 8 -5 18 -8 22 -4 3 -5
-1 -4 -10z"/>
<path d="M4895 980 c3 -5 8 -10 11 -10 2 0 4 5 4 10 0 6 -5 10 -11 10 -5 0 -7
-4 -4 -10z"/>
<path d="M5010 979 c0 -5 5 -7 10 -4 6 3 10 8 10 11 0 2 -4 4 -10 4 -5 0 -10
-5 -10 -11z"/>
<path d="M4796 941 c-3 -5 2 -15 12 -22 15 -12 16 -12 5 2 -7 9 -10 19 -6 22
3 4 4 7 0 7 -3 0 -8 -4 -11 -9z"/>
<path d="M4835 931 c-3 -5 -2 -12 3 -15 5 -3 9 1 9 9 0 17 -3 19 -12 6z"/>
<path d="M4766 922 c-3 -5 1 -9 9 -9 8 0 12 4 9 9 -3 4 -7 8 -9 8 -2 0 -6 -4
-9 -8z"/>
<path d="M4919 918 c-6 -23 -7 -48 -1 -52 4 -2 7 9 7 25 1 24 -2 38 -6 27z"/>
<path d="M4951 907 c-8 -10 -7 -14 2 -14 8 0 14 6 14 14 0 7 -1 13 -2 13 -2 0
-8 -6 -14 -13z"/>
<path d="M4865 899 c-3 -4 2 -6 10 -5 21 3 28 13 10 13 -9 0 -18 -4 -20 -8z"/>
<path d="M4765 880 c-3 -6 1 -7 9 -4 18 7 21 14 7 14 -6 0 -13 -4 -16 -10z"/>
<path d="M4700 846 c7 -7 13 -7 20 0 6 6 3 10 -10 10 -13 0 -16 -4 -10 -10z"/>
<path d="M4777 849 c7 -7 15 -10 18 -7 3 3 -2 9 -12 12 -14 6 -15 5 -6 -5z"/>
<path d="M4890 856 c0 -2 8 -10 18 -17 15 -13 16 -12 3 4 -13 16 -21 21 -21
13z"/>
<path d="M2475 840 c3 -5 8 -10 11 -10 2 0 4 5 4 10 0 6 -5 10 -11 10 -5 0 -7
-4 -4 -10z"/>
<path d="M4671 837 c-1 -11 -6 -15 -13 -11 -7 5 -8 3 -3 -5 10 -16 29 2 22 21
-4 8 -6 7 -6 -5z"/>
<path d="M4740 840 c-9 -6 -10 -10 -3 -10 6 0 15 5 18 10 8 12 4 12 -15 0z"/>
<path d="M4833 835 c0 -8 4 -12 9 -9 5 3 6 10 3 15 -9 13 -12 11 -12 -6z"/>
<path d="M4798 823 c7 -3 16 -2 19 1 4 3 -2 6 -13 5 -11 0 -14 -3 -6 -6z"/>
<path d="M4577 805 c-4 -8 -3 -16 1 -19 4 -3 9 4 9 15 2 23 -3 25 -10 4z"/>
<path d="M4756 805 c23 -17 34 -19 34 -4 0 5 -4 8 -9 4 -5 -3 -12 -1 -16 5 -3
5 -11 10 -18 10 -6 0 -2 -7 9 -15z"/>
<path d="M4690 798 c0 -6 3 -8 7 -5 3 4 13 1 22 -6 14 -11 14 -10 2 6 -15 20
-31 22 -31 5z"/>
<path d="M4800 806 c0 -2 8 -10 18 -17 15 -13 16 -12 3 4 -13 16 -21 21 -21
13z"/>
<path d="M4641 781 c-9 -6 -10 -11 -2 -15 6 -4 11 -2 11 4 0 6 5 8 12 4 7 -4
8 -3 4 4 -8 14 -7 14 -25 3z"/>
<path d="M4677 766 c-4 -10 -3 -15 3 -11 6 3 10 1 10 -6 0 -7 3 -10 6 -6 3 3
2 13 -4 22 -8 16 -9 16 -15 1z"/>
<path d="M4600 760 c8 -5 20 -10 25 -10 6 0 3 5 -5 10 -8 5 -19 10 -25 10 -5
0 -3 -5 5 -10z"/>
<path d="M4740 760 c8 -5 20 -10 25 -10 6 0 3 5 -5 10 -8 5 -19 10 -25 10 -5
0 -3 -5 5 -10z"/>
<path d="M4790 740 c0 -5 5 -10 11 -10 5 0 7 5 4 10 -3 6 -8 10 -11 10 -2 0
-4 -4 -4 -10z"/>
<path d="M4628 733 c6 -2 10 -8 7 -13 -3 -4 3 -14 13 -21 15 -13 16 -12 3 4
-11 14 -11 17 0 17 11 0 11 2 -1 10 -8 5 -19 9 -25 9 -5 0 -4 -3 3 -6z"/>
<path d="M4673 725 c0 -8 4 -12 9 -9 5 3 6 10 3 15 -9 13 -12 11 -12 -6z"/>
<path d="M4593 693 c0 -9 4 -10 14 -2 7 6 13 12 13 14 0 1 -6 2 -13 2 -8 0
-14 -6 -14 -14z"/>
<path d="M4675 671 c-3 -5 -2 -12 3 -15 5 -3 9 1 9 9 0 17 -3 19 -12 6z"/>
<path d="M2696 407 c3 -10 9 -15 12 -12 3 3 0 11 -7 18 -10 9 -11 8 -5 -6z"/>
<path d="M3370 333 c0 -5 5 -15 10 -23 7 -12 9 -10 7 8 -1 19 -17 33 -17 15z"/>
<path d="M2865 270 c-3 -6 1 -7 9 -4 18 7 21 14 7 14 -6 0 -13 -4 -16 -10z"/>
<path d="M3830 249 c0 -5 5 -7 10 -4 6 3 10 8 10 11 0 2 -4 4 -10 4 -5 0 -10
-5 -10 -11z"/>
<path d="M3775 210 c3 -5 8 -10 11 -10 2 0 4 5 4 10 0 6 -5 10 -11 10 -5 0 -7
-4 -4 -10z"/>
<path d="M3742 180 c-12 -19 -11 -20 8 -8 20 13 27 28 12 28 -4 0 -13 -9 -20
-20z"/>
<path d="M3540 160 c0 -5 5 -10 10 -10 6 0 10 5 10 10 0 6 -4 10 -10 10 -5 0
-10 -4 -10 -10z"/>
<path d="M3570 160 c0 -5 5 -10 10 -10 6 0 10 5 10 10 0 6 -4 10 -10 10 -5 0
-10 -4 -10 -10z"/>
<path d="M3600 160 c0 -5 5 -10 10 -10 6 0 10 5 10 10 0 6 -4 10 -10 10 -5 0
-10 -4 -10 -10z"/>
<path d="M3530 129 c0 -5 5 -7 10 -4 6 3 10 8 10 11 0 2 -4 4 -10 4 -5 0 -10
-5 -10 -11z"/>
</g>
</svg>
